<svg width="250" height="250" viewBox="0 0 250 250" fill="none" xmlns="http://www.w3.org/2000/svg">
<path d="M250 250C250 217.17 243.534 184.661 230.97 154.329C218.406 123.998 199.991 96.4379 176.777 73.2233C153.562 50.0086 126.002 31.5938 95.6709 19.0301C65.3395 6.46644 32.8305 -1.43507e-06 0 0L1.09278e-05 250H250Z" fill="#53ADDF"/>
<path d="M1.20407e-05 150C13.1322 150 26.1358 152.587 38.2684 157.612C50.4009 162.638 61.4248 170.003 70.7107 179.289C79.9965 188.575 87.3625 199.599 92.388 211.732C97.4134 223.864 100 236.868 100 250H40C40 244.747 38.9654 239.546 36.9552 234.693C34.945 229.84 31.9986 225.43 28.2843 221.716C24.5699 218.001 20.1604 215.055 15.3073 213.045C10.4543 211.035 5.25288 210 9.41805e-06 210L1.20407e-05 150Z" fill="white"/>
</svg>
