<svg width="393" height="238" viewBox="0 0 393 238" fill="none" xmlns="http://www.w3.org/2000/svg">
<path d="M120.658 238C120.579 206.228 133.125 175.224 155.536 152.702C177.946 130.179 208.386 117.482 240.159 117.403C271.931 117.324 302.434 129.87 324.956 152.28C347.479 174.691 360.176 205.131 360.255 236.903L288.376 237.082C288.344 224.373 283.266 212.197 274.257 203.233C265.248 194.269 253.047 189.25 240.338 189.282C227.629 189.314 215.453 194.392 206.488 203.401C197.524 212.41 192.506 224.611 192.537 237.32L120.658 238Z" fill="#53ADDF" fill-opacity="0.3"/>
<path d="M0.859375 117.403C16.5916 117.403 32.1697 120.501 46.7043 126.522C61.239 132.542 74.4455 141.366 85.5698 152.491C96.6942 163.615 105.518 176.822 111.539 191.356C117.559 205.891 120.658 222.268 120.658 238H49C49 231.707 47.5394 224.677 45.1312 218.863C42.723 213.049 39.1933 207.767 34.7436 203.317C30.2938 198.867 25.0112 195.338 19.1974 192.929C13.3835 190.521 7.15225 189.282 0.859376 189.282L0.859375 117.403Z" fill="white"/>
<path d="M313.135 39.9329C313.135 17.8786 331.013 -1.92805e-06 353.067 0C375.122 1.92805e-06 393 17.8786 393 39.9329C393 61.9872 375.122 79.8658 353.067 79.8658C331.013 79.8658 313.135 61.9872 313.135 39.9329Z" fill="#F19015"/>
</svg>
