<svg width="401" height="201" viewBox="0 0 401 201" fill="none" xmlns="http://www.w3.org/2000/svg">
<path d="M0.842773 200.843C0.842773 174.578 6.01592 148.571 16.0669 124.306C26.1178 100.041 40.8497 77.9931 59.4214 59.4214C77.9931 40.8497 100.041 26.1178 124.306 16.0669C148.571 6.01593 174.578 0.842774 200.843 0.842773C227.107 0.842773 253.114 6.01593 277.379 16.0669C301.645 26.1178 323.692 40.8497 342.264 59.4214C360.836 77.9931 375.568 100.041 385.619 124.306C395.67 148.571 400.843 174.578 400.843 200.843H280.843C280.843 190.337 278.774 179.934 274.753 170.228C270.733 160.522 264.84 151.703 257.411 144.274C249.983 136.846 241.163 130.953 231.457 126.932C221.751 122.912 211.349 120.843 200.843 120.843C190.337 120.843 179.934 122.912 170.228 126.932C160.522 130.953 151.703 136.846 144.274 144.274C136.846 151.703 130.953 160.522 126.932 170.228C122.912 179.934 120.843 190.337 120.843 200.843H0.842773Z" fill="white"/>
</svg>
