<svg width="301" height="201" viewBox="0 0 301 201" fill="none" xmlns="http://www.w3.org/2000/svg">
<path d="M0.842791 0.842773C27.1072 0.842777 53.1144 6.01593 77.3795 16.0669C101.645 26.1178 123.692 40.8497 142.264 59.4214C160.836 77.9932 175.568 100.041 185.619 124.306C195.67 148.571 200.843 174.578 200.843 200.843L80.8428 200.843C80.8428 190.337 78.7735 179.934 74.7531 170.228C70.7328 160.522 64.84 151.703 57.4113 144.274C49.9826 136.846 41.1635 130.953 31.4574 126.932C21.7514 122.912 11.3485 120.843 0.842773 120.843L0.842791 0.842773Z" fill="#53ADDF"/>
<path d="M300.843 100.843C287.711 100.843 274.707 103.429 262.574 108.455C250.442 113.48 239.418 120.846 230.132 130.132C220.846 139.418 213.48 150.442 208.455 162.574C203.429 174.707 200.843 187.711 200.843 200.843L260.843 200.843C260.843 195.59 261.877 190.388 263.888 185.535C265.898 180.682 268.844 176.273 272.558 172.559C276.273 168.844 280.682 165.898 285.535 163.888C290.388 161.877 295.59 160.843 300.843 160.843V100.843Z" fill="#F19015"/>
</svg>
