<svg width="200" height="400" viewBox="0 0 200 400" fill="none" xmlns="http://www.w3.org/2000/svg">
<path d="M6.57997e-05 -2.80164e-05C26.2644 -2.02208e-05 52.2716 5.17314 76.5367 15.2241C100.802 25.275 122.85 40.0069 141.421 58.5787C159.993 77.1504 174.725 99.1982 184.776 123.463C194.827 147.728 200 173.736 200 200C200 226.264 194.827 252.272 184.776 276.537C174.725 300.802 159.993 322.85 141.421 341.421C122.85 359.993 100.802 374.725 76.5366 384.776C52.2715 394.827 26.2643 400 -7.04097e-05 400L-3.96709e-05 320C15.7586 320 31.3629 316.896 45.922 310.866C60.4811 304.835 73.7098 295.996 84.8528 284.853C95.9958 273.71 104.835 260.481 110.866 245.922C116.896 231.363 120 215.759 120 200C120 184.241 116.896 168.637 110.866 154.078C104.835 139.519 95.9959 126.29 84.8529 115.147C73.7098 104.004 60.4811 95.165 45.9221 89.1344C31.363 83.1039 15.7587 80 4.20547e-05 80L6.57997e-05 -2.80164e-05Z" fill="#1B9FE0"/>
</svg>
