<svg width="250" height="254" viewBox="0 0 250 254" fill="none" xmlns="http://www.w3.org/2000/svg">
<path d="M250 253.205C217.17 253.205 184.661 246.739 154.329 234.175C123.998 221.611 96.4379 203.196 73.2233 179.982C50.0086 156.767 31.5938 129.207 19.0301 98.8759C6.46642 68.5445 -2.39428e-05 36.0355 -2.18557e-05 3.20507L25 3.20507C25 32.7525 30.8198 62.0106 42.1271 89.3088C53.4344 116.607 70.0078 141.411 90.9009 162.304C111.794 183.197 136.598 199.771 163.896 211.078C191.194 222.385 220.453 228.205 250 228.205L250 253.205Z" fill="#F19015"/>
<path d="M250 200C223.736 200 197.728 194.827 173.463 184.776C149.198 174.725 127.15 159.993 108.579 141.421C90.0069 122.85 75.275 100.802 65.224 76.5367C55.1731 52.2716 49.9999 26.2644 49.9999 -1.3033e-05L130 -2.00268e-05C130 15.7586 133.104 31.3629 139.134 45.922C145.165 60.4811 154.004 73.7098 165.147 84.8528C176.29 95.9958 189.519 104.835 204.078 110.866C218.637 116.896 234.241 120 250 120L250 200Z" fill="#F2F2F2"/>
</svg>
