<svg width="254" height="251" viewBox="0 0 254 251" fill="none" xmlns="http://www.w3.org/2000/svg">
<path d="M253.603 0.602539C253.603 33.433 247.136 65.942 234.572 96.2734C222.009 126.605 203.594 154.165 180.379 177.379C157.165 200.594 129.605 219.009 99.2734 231.572C68.942 244.136 36.433 250.603 3.6025 250.603L3.6025 225.603C33.1499 225.603 62.408 219.783 89.7063 208.475C117.005 197.168 141.808 180.595 162.702 159.702C183.595 138.808 200.168 114.005 211.475 86.7063C222.783 59.4081 228.603 30.15 228.603 0.602538L253.603 0.602539Z" fill="#F19015"/>
<path d="M200.397 0.602542C200.397 26.8669 195.224 52.8741 185.173 77.1392C175.122 101.404 160.391 123.452 141.819 142.024C123.247 160.596 101.199 175.328 76.9341 185.378C52.669 195.429 26.6618 200.603 0.397422 200.603L0.397425 120.603C16.1561 120.603 31.7604 117.499 46.3195 111.468C60.8785 105.438 74.1072 96.5984 85.2503 85.4554C96.3933 74.3124 105.232 61.0837 111.263 46.5246C117.294 31.9655 120.397 16.3612 120.397 0.602552L200.397 0.602542Z" fill="#F2F2F2"/>
</svg>
