<svg width="389" height="404" viewBox="0 0 389 404" fill="none" xmlns="http://www.w3.org/2000/svg">
<path d="M166 403.5C257.403 403.5 331.5 329.403 331.5 238C331.5 146.597 257.403 72.5 166 72.5C74.5969 72.5 0.500003 146.597 0.500002 238C0.500001 329.403 74.5969 403.5 166 403.5ZM166 138.7C220.842 138.7 265.3 183.158 265.3 238C265.3 292.842 220.842 337.3 166 337.3C111.158 337.3 66.7 292.842 66.7 238C66.7 183.158 111.158 138.7 166 138.7Z" fill="#F2F2F2"/>
<path d="M188.5 0.500246C188.5 26.7646 193.673 52.7718 203.724 77.0369C213.775 101.302 228.507 123.35 247.079 141.922C265.65 160.493 287.698 175.225 311.963 185.276C336.228 195.327 362.236 200.5 388.5 200.5L388.5 120.5C372.741 120.5 357.137 117.396 342.578 111.366C328.019 105.335 314.79 96.4961 303.647 85.3531C292.504 74.21 283.665 60.9813 277.634 46.4223C271.604 31.8632 268.5 16.2589 268.5 0.500247L188.5 0.500246Z" fill="#F2F2F2"/>
</svg>
