<svg width="499" height="244" viewBox="0 0 499 244" fill="none" xmlns="http://www.w3.org/2000/svg">
<path d="M498.578 0.457275C466.596 0.457271 434.927 6.75669 405.379 18.9958C375.831 31.235 348.983 49.1742 326.368 71.7893C303.753 94.4043 285.813 121.252 273.574 150.8C261.335 180.348 255.036 212.017 255.036 244H352.453C352.453 224.81 356.232 205.809 363.576 188.08C370.919 170.351 381.683 154.243 395.252 140.674C408.821 127.105 424.93 116.341 442.658 108.997C460.387 101.654 479.389 97.8743 498.578 97.8743L498.578 0.457275Z" fill="#F19015"/>
<path d="M254.876 243.764C254.876 227.071 251.588 210.542 245.2 195.12C238.812 179.698 229.449 165.686 217.646 153.882C205.842 142.079 191.83 132.715 176.408 126.327C160.986 119.939 144.456 116.652 127.764 116.652C111.071 116.652 94.542 119.94 79.12 126.327C63.698 132.715 49.6852 142.079 37.8817 153.882C26.0783 165.686 16.7152 179.698 10.3272 195.12C3.93923 210.542 0.651367 227.071 0.651367 243.764H51.4963C51.4963 233.749 53.4691 223.831 57.3019 214.578C61.1347 205.325 66.7525 196.917 73.8346 189.835C80.9167 182.753 89.3243 177.135 98.5775 173.302C107.831 169.469 117.748 167.497 127.764 167.497C137.779 167.497 147.697 169.469 156.95 173.302C166.203 177.135 174.611 182.753 181.693 189.835C188.775 196.917 194.393 205.325 198.226 214.578C202.059 223.831 204.031 233.749 204.031 243.764H254.876Z" fill="#F2F2F2"/>
</svg>
