<svg width="374" height="201" viewBox="0 0 374 201" fill="none" xmlns="http://www.w3.org/2000/svg">
<path d="M200 200C200 173.736 194.827 147.729 184.776 123.463C174.725 99.1983 159.993 77.1505 141.421 58.5788C122.85 40.0071 100.802 25.2752 76.5367 15.2242C52.2716 5.17327 26.2644 0.000121601 0 0.00012207L1.43099e-06 80.0001C15.7586 80.0001 31.3629 83.104 45.922 89.1346C60.4811 95.1651 73.7098 104.004 84.8528 115.147C95.9959 126.29 104.835 139.519 110.866 154.078C116.896 168.637 120 184.242 120 200L200 200Z" fill="#1B9FE0"/>
<path d="M373.661 200.161C373.661 188.802 371.424 177.554 367.077 167.059C362.73 156.564 356.358 147.029 348.326 138.996C340.294 130.964 330.758 124.593 320.263 120.245C309.768 115.898 298.52 113.661 287.161 113.661C275.802 113.661 264.554 115.898 254.059 120.245C243.564 124.593 234.029 130.964 225.996 138.996C217.964 147.029 211.592 156.564 207.245 167.059C202.898 177.554 200.661 188.802 200.661 200.161L243.911 200.161C243.911 194.481 245.03 188.857 247.203 183.61C249.377 178.363 252.563 173.595 256.579 169.579C260.595 165.563 265.363 162.377 270.61 160.203C275.857 158.03 281.481 156.911 287.161 156.911C292.841 156.911 298.465 158.03 303.712 160.203C308.959 162.377 313.727 165.563 317.743 169.579C321.76 173.595 324.945 178.363 327.119 183.61C329.292 188.857 330.411 194.481 330.411 200.161H373.661Z" fill="#F2F2F2"/>
</svg>
