<svg width="403" height="388" viewBox="0 0 403 388" fill="none" xmlns="http://www.w3.org/2000/svg">
<path d="M0 165.5C0 256.903 74.0969 331 165.5 331C256.903 331 331 256.903 331 165.5C331 74.0969 256.903 0 165.5 0C74.0969 0 0 74.0969 0 165.5ZM264.8 165.5C264.8 220.342 220.342 264.8 165.5 264.8C110.658 264.8 66.2 220.342 66.2 165.5C66.2 110.658 110.658 66.2 165.5 66.2C220.342 66.2 264.8 110.658 264.8 165.5Z" fill="#1B9FE0"/>
<path d="M403 188C376.735 188 350.728 193.173 326.463 203.224C302.198 213.275 280.15 228.007 261.578 246.579C243.007 265.15 228.275 287.198 218.224 311.463C208.173 335.728 203 361.736 203 388H283C283 372.241 286.104 356.637 292.134 342.078C298.165 327.519 307.004 314.29 318.147 303.147C329.29 292.004 342.519 283.165 357.078 277.134C371.637 271.104 387.241 268 403 268V188Z" fill="#1B9FE0"/>
</svg>
