<svg width="250" height="254" viewBox="0 0 250 254" fill="none" xmlns="http://www.w3.org/2000/svg">
<path d="M0 0C32.8305 -3.91499e-07 65.3395 6.46644 95.6709 19.0301C126.002 31.5938 153.562 50.0087 176.777 73.2233C199.991 96.438 218.406 123.998 230.97 154.329C243.534 184.661 250 217.17 250 250H225C225 220.453 219.18 191.195 207.873 163.896C196.566 136.598 179.992 111.794 159.099 90.901C138.206 70.0078 113.402 53.4344 86.1038 42.1271C58.8055 30.8198 29.5474 25 2.98121e-07 25L0 0Z" fill="#F19015"/>
<path d="M5.12053e-06 53.2051C26.2644 53.2051 52.2716 58.3782 76.5367 68.4292C100.802 78.4801 122.85 93.212 141.421 111.784C159.993 130.355 174.725 152.403 184.776 176.668C194.827 200.934 200 226.941 200 253.205H120C120 237.446 116.896 221.842 110.866 207.283C104.835 192.724 95.9959 179.495 84.8529 168.352C73.7098 157.209 60.4811 148.37 45.922 142.34C31.363 136.309 15.7586 133.205 1.91969e-05 133.205L5.12053e-06 53.2051Z" fill="#F2F2F2"/>
</svg>
