<svg width="301" height="201" viewBox="0 0 301 201" fill="none" xmlns="http://www.w3.org/2000/svg">
<path d="M0.845703 0.844727C27.1101 0.844731 53.1174 6.01799 77.3825 16.0689C101.648 26.1199 123.695 40.8518 142.267 59.4235C160.839 77.9952 175.571 100.043 185.622 124.308C195.673 148.573 201 174.736 201 201H80.8046C80.8046 190.494 78.7765 179.936 74.7561 170.23C70.7357 160.524 64.843 151.705 57.4143 144.276C49.9856 136.848 41.1665 130.955 31.4605 126.934C21.7544 122.914 11.3515 120.845 0.845787 120.845L0.845703 0.844727Z" fill="#F2F2F2"/>
<path d="M300.843 100.843C287.711 100.843 274.707 103.429 262.575 108.455C250.442 113.48 239.418 120.846 230.132 130.132C220.846 139.418 213.481 150.442 208.455 162.574C203.43 174.707 201 187.868 201 201L261 201C261 195.747 261.878 190.388 263.888 185.535C265.898 180.682 268.844 176.273 272.559 172.558C276.273 168.844 280.683 165.898 285.536 163.887C290.389 161.877 295.59 160.843 300.843 160.843V100.843Z" fill="#F19015"/>
</svg>
