<svg width="225" height="75" viewBox="0 0 225 75" fill="none" xmlns="http://www.w3.org/2000/svg">
<path d="M112.5 1.63918e-06C133.211 2.54447e-06 150 16.7893 150 37.5C150 58.2107 133.211 75 112.5 75C91.7893 75 75 58.2107 75 37.5C75 16.7893 91.7893 7.33885e-07 112.5 1.63918e-06ZM112.5 52.5C120.784 52.5 127.5 45.7843 127.5 37.5C127.5 29.2157 120.784 22.5 112.5 22.5C104.216 22.5 97.5 29.2157 97.5 37.5C97.5 45.7843 104.216 52.5 112.5 52.5Z" fill="#53ADDF"/>
<path d="M1.63918e-06 37.5C1.22653e-06 44.9168 2.19934 52.167 6.31989 58.3339C10.4404 64.5007 16.2971 69.3072 23.1494 72.1455C30.0016 74.9838 37.5416 75.7264 44.8159 74.2795C52.0902 72.8325 58.772 69.261 64.0165 64.0165C69.261 58.772 72.8325 52.0902 74.2794 44.8159C75.7264 37.5416 74.9838 30.0016 72.1455 23.1494C69.3072 16.2971 64.5007 10.4404 58.3339 6.31989C52.167 2.19934 44.9168 1.96338e-06 37.5 1.63918e-06L37.5 22.5C40.4667 22.5 43.3668 23.3797 45.8336 25.028C48.3003 26.6762 50.2229 29.0189 51.3582 31.7598C52.4935 34.5006 52.7906 37.5166 52.2118 40.4264C51.633 43.3361 50.2044 46.0088 48.1066 48.1066C46.0088 50.2044 43.3361 51.633 40.4264 52.2118C37.5166 52.7906 34.5006 52.4935 31.7597 51.3582C29.0189 50.2229 26.6762 48.3003 25.028 45.8336C23.3797 43.3668 22.5 40.4667 22.5 37.5L1.63918e-06 37.5Z" fill="white"/>
<rect x="150" width="75" height="75" rx="37.5" fill="#F19015"/>
</svg>
