<svg width="180" height="485" viewBox="0 0 180 485" fill="none" xmlns="http://www.w3.org/2000/svg">
<path d="M180 200C153.478 200 128.043 189.464 109.289 170.711C90.5357 151.957 80 126.522 80 100C80 73.4784 90.5357 48.043 109.289 29.2893C128.043 10.5357 153.478 7.63901e-06 180 0L180 60C169.391 60 159.217 64.2143 151.716 71.7157C144.214 79.2172 140 89.3913 140 100C140 110.609 144.214 120.783 151.716 128.284C159.217 135.786 169.391 140 180 140V200Z" fill="#53ADDF"/>
<path d="M0 435C2.41411e-06 407.386 22.3858 385 50 385C77.6142 385 100 407.386 100 435C100 462.614 77.6142 485 50 485C22.3858 485 -2.41411e-06 462.614 0 435Z" fill="#F19015"/>
</svg>
