<svg width="553" height="550" viewBox="0 0 553 550" fill="none" xmlns="http://www.w3.org/2000/svg">
<path d="M550.107 49.107C484.446 49.107 419.428 62.0399 358.765 87.1673C298.102 112.295 242.983 149.124 196.553 195.554C150.124 241.983 113.294 297.103 88.1671 357.765C63.0398 418.428 50.1069 483.446 50.107 549.107L350.107 549.107C350.107 522.843 355.28 496.835 365.331 472.57C375.382 448.305 390.114 426.257 408.686 407.686C427.257 389.114 449.305 374.382 473.57 364.331C497.835 354.28 523.843 349.107 550.107 349.107L550.107 49.107Z" fill="#F2F2F2"/>
<path d="M552.176 0.110824C479.949 -0.160818 408.377 13.7963 341.544 41.1852C274.712 68.5741 213.928 108.859 162.664 159.738C111.4 210.618 70.6597 271.097 42.7689 337.721C14.878 404.346 0.382967 475.812 0.111328 548.038L22.1034 548.121C22.3642 478.783 36.2796 410.175 63.0553 346.214C89.8309 282.253 128.942 224.193 178.156 175.348C227.37 126.502 285.724 87.8286 349.884 61.5349C414.044 35.2411 482.755 21.8421 552.093 22.1029L552.176 0.110824Z" fill="#F19015"/>
</svg>
