<svg width="1512" height="1052" viewBox="0 0 1512 1052" fill="none" xmlns="http://www.w3.org/2000/svg">
<g opacity="0.15">
<path d="M864.789 0.0117035C866.269 8.5269 867.621 17.0656 869.359 25.5337C869.677 27.098 871.298 28.6269 872.696 29.6855C876.679 32.6964 881.061 35.1897 884.868 38.3771C887.887 40.9057 889.344 44.587 889.368 48.6564C889.391 53.902 887.229 58.0066 882.624 60.5588C878.042 63.0875 873.248 62.7112 869.43 59.4062C865.612 56.1013 862.604 51.8555 859.079 48.186C857.775 46.8334 856.083 45.2104 854.403 44.9634C845.544 43.7049 836.639 42.3171 827.721 41.9525C790.936 40.4706 754.925 46.0336 719.35 54.8781C707.025 57.9361 694.724 61.1351 682.587 64.8517C647.27 75.6721 614.538 91.7733 585.13 114.249C577.881 119.8 571.184 126.222 564.981 132.938C561.315 136.913 558.589 142.018 556.392 147.028C553.631 153.308 555.206 158.001 560.528 162.412C568.423 168.974 577.811 170.962 587.609 169.445C594.706 168.339 601.814 166.34 608.475 163.646C623.831 157.436 637.601 148.486 650.066 137.548C656.563 131.844 663.037 126.105 669.581 120.447C671.026 119.201 672.577 117.977 674.293 117.189C681.236 114.014 688.967 118.707 688.685 126.328C688.544 130.139 687.158 134.067 685.63 137.631C677.171 157.425 670.216 177.725 665.481 198.719C663.636 206.905 662.567 215.338 661.956 223.712C661.451 230.533 663.178 231.403 669.64 229.145C677.383 226.428 683.668 221.442 689.39 215.796C698.789 206.54 698.155 211.056 693.866 198.213C691.399 190.839 693.067 185.064 698.789 180.136C703.477 176.102 708.729 173.55 715.061 173.679C726.54 173.903 734.2 183.547 731.122 194.638C729.865 199.178 727.668 203.694 724.93 207.528C714.345 222.347 701.385 234.85 686.124 244.811C679.556 249.104 672.354 252.139 664.388 252.833C653.65 253.762 645.191 248.834 640.644 239.013C636.579 230.239 636.414 221.006 637.707 211.668C640.08 194.508 645.802 178.278 651.699 162.117C652.028 161.212 652.346 160.306 652.616 159.389C652.663 159.224 652.51 159.001 652.369 158.542C651.265 159.307 650.231 160.012 649.197 160.73C633.371 171.586 616.958 181.312 598.172 186.181C585.365 189.498 572.559 189.604 560.105 184.664C555.981 183.029 551.951 180.853 548.333 178.278C536.02 169.48 531.497 156.613 535.162 141.912C537.406 132.914 541.965 125.128 547.816 118.048C558.824 104.758 572.089 93.9962 586.47 84.6695C622.562 61.288 661.404 44.4106 703.524 35.2015C728.032 29.8384 752.517 24.4282 777.554 22.0877C800.687 19.9236 823.809 19.806 846.884 22.8404C847.812 22.958 848.752 22.9815 849.927 23.0521C849.328 15.2308 848.74 7.6095 848.153 0C853.686 0.0117 859.244 0.0117035 864.789 0.0117035Z" fill="white"/>
<path d="M0.0117188 881.626C3.63038 881.873 4.91101 879.839 6.07415 876.616C12.2305 859.633 22.2641 845.107 35.4816 832.923C39.159 829.536 43.8351 826.995 48.4524 824.96C50.9196 823.878 54.3503 824.172 57.1231 824.808C60.5537 825.596 62.457 829.006 62.3396 832.393C62.1986 836.145 60.5655 838.039 56.5474 839.262C55.7602 839.497 54.9495 839.921 54.3386 840.473C42.202 851.423 34.5652 865.196 29.3722 880.497C29.3134 880.674 29.4074 880.909 29.4779 881.579C30.5588 881.756 31.7572 881.979 32.9791 882.12C45.4094 883.567 57.7575 885.543 69.5181 889.953C74.2764 891.741 79.07 893.87 83.2291 896.74C93.8501 904.079 95.7416 916.251 87.6702 926.307C76.215 940.586 60.6595 946.055 42.8129 944.973C22.2054 943.726 8.44742 931.588 3.59513 911.041C3.12518 909.03 2.77271 907.172 0.0117188 907.889C0.0117188 899.151 0.0117188 890.388 0.0117188 881.626ZM28.209 906.537C30.6176 914.476 35.7048 918.321 42.7894 919.686C51.4131 921.356 59.3083 919.733 67.1801 913.899C54.3033 908.289 41.591 907.207 28.209 906.537Z" fill="white"/>
<path d="M96.0941 0.0117188C93.3919 26.1453 90.8071 52.2789 87.9286 78.3889C87.0357 86.5277 85.5554 94.6312 83.887 102.664C83.2996 105.487 81.6665 108.227 79.9864 110.638C78.0361 113.438 75.0519 114.708 71.5389 113.802C67.9203 112.861 65.6645 110.25 65.5235 106.722C65.3238 101.959 65.735 97.1482 66.2519 92.3966C67.2741 83.0581 68.5195 73.755 69.7766 64.44C70.0703 62.276 69.4829 61.1704 67.3093 60.4294C62.6803 58.8534 58.1687 56.9599 53.1872 55.0428C52.5762 58.924 52.118 62.4877 51.4248 66.0043C50.9901 68.1919 50.3792 70.3795 49.4863 72.4142C47.7004 76.4718 44.2815 78.483 40.6746 77.9185C37.1499 77.3657 34.3185 74.6371 33.9777 70.356C33.6605 66.463 34.1187 62.4994 34.3655 58.5711C34.4947 56.4776 34.9059 54.4076 35.2819 51.7143C21.3594 52.5023 10.1392 58.2889 0.0117188 66.6982C0.0117188 56.8658 0.0117188 47.0333 0.0117188 37.2009C0.411181 37.0833 0.857639 37.0362 1.22186 36.8598C12.489 31.3438 24.2732 28.0977 36.9267 28.7798C39.018 28.8974 39.2765 27.7331 39.629 26.11C41.5205 17.3949 43.5296 8.70332 45.4916 0.0117188C49.7565 0.0117188 54.0331 0.0117188 58.2979 0.0117188C58.5682 2.95202 59.2026 5.91592 59.0146 8.83272C58.6857 13.9371 57.9337 19.0297 57.1935 24.0988C56.0069 32.2259 55.9717 32.1788 62.9623 36.0836C65.7937 37.6713 68.5195 39.4708 71.6917 41.4232C72.3379 35.1779 72.8313 29.4502 73.5597 23.746C74.5701 15.8306 75.7685 7.92702 76.8847 0.0117188C83.2878 0.0117188 89.691 0.0117188 96.0941 0.0117188Z" fill="white"/>
<path d="M979.459 0.0117188C975.793 6.51572 971.892 12.9021 968.544 19.559C966.253 24.1106 964.49 28.968 962.916 33.8254C961.694 37.589 962.564 39.0827 966.288 40.0118C978.754 43.1168 990.843 41.9407 1002.34 36.1306C1003.27 35.6602 1003.93 34.2135 1004.26 33.0962C1005.22 29.7089 1005.81 26.2158 1006.8 22.8404C1008.35 17.5478 1011.9 14.878 1016.49 15.2778C1020.81 15.6424 1024.42 18.9121 1024.57 24.1576C1024.75 30.5087 1024.15 36.9421 1023.36 43.2697C1022.21 52.4788 1020.6 61.6409 1019.17 70.8147C1018.91 72.4965 1018.63 74.1902 1018.2 75.8485C1016.92 80.8353 1014.25 83.5639 1010.3 83.9991C1006.27 84.446 1001.6 82.129 1000.11 77.7303C998.785 73.8138 998.691 69.4504 998.268 65.2516C998.104 63.6168 998.527 61.9231 998.668 60.2883C991.76 61.2998 985.168 62.7229 978.519 63.0875C972.28 63.4286 965.865 63.2874 959.744 62.1936C942.673 59.1474 933.885 44.3988 938.737 27.7095C941.298 18.9003 945.81 11.032 950.944 3.49302C951.719 2.35222 952.436 1.17612 953.188 0.0117188C961.941 0.0117188 970.706 0.0117188 979.459 0.0117188Z" fill="white"/>
<path d="M1403.52 0.0117035C1402.69 1.9994 1402.26 4.3046 1400.97 5.9277C1391.75 17.5361 1386.27 31.1556 1380.13 44.4106C1379.92 44.8693 1379.93 45.4221 1379.73 46.5864C1386.12 45.6573 1392.23 44.9516 1398.27 43.8461C1403.4 42.9051 1408.44 41.435 1413.54 40.3294C1415.59 39.8825 1416.61 38.9534 1416.95 36.7893C1417.34 34.39 1418.04 31.9907 1418.95 29.7207C1420.71 25.3103 1424.33 23.2873 1428.24 24.24C1431.96 25.1456 1434.27 28.4976 1434.01 33.108C1433.73 38.0125 1433.05 42.8934 1432.82 47.7978C1432.69 50.6558 1432.94 53.5609 1433.33 56.3953C1433.81 59.9355 1435.95 62.1231 1439.53 62.817C1440.78 63.064 1442.03 63.4051 1443.21 63.899C1446.49 65.2869 1448.23 68.2272 1447.84 71.5321C1447.47 74.6253 1445.15 77.0129 1441.79 77.7421C1433.54 79.5416 1423.05 74.1784 1418.93 65.7808C1417.45 62.7582 1416.62 59.4297 1415.54 56.3718C1407.15 58.2183 1398.76 60.1472 1390.33 61.8761C1386.26 62.7112 1382.13 63.358 1377.99 63.7461C1375.37 63.9931 1372.63 63.8873 1370.04 63.4404C1363.96 62.3936 1360.3 57.8302 1360.52 51.6673C1360.6 49.3503 1360.91 46.904 1361.77 44.7752C1368.14 28.8857 1375.35 13.4314 1386.23 0C1391.98 0.0117 1397.75 0.0117035 1403.52 0.0117035Z" fill="white"/>
<path d="M0.0117188 978.445C0.293692 978.763 0.622661 979.033 0.84589 979.386C10.0688 994.005 19.5149 1008.51 28.4088 1023.33C32.6971 1030.46 39.159 1031.12 46.9133 1031.63C45.9381 1028.55 45.2684 1025.9 44.258 1023.38C42.0492 1017.93 43.0596 1013.42 47.2305 1011.05C51.4366 1008.65 56.5239 1009.95 59.8958 1014.45C60.9767 1015.88 61.9166 1017.48 62.6568 1019.12C67.2388 1029.27 68.9777 1040.1 70.4815 1051.54C69.2009 1051.54 68.1905 1051.54 67.1801 1051.54C52.6702 1051.54 38.1604 1051.64 23.6505 1051.45C21.3712 1051.41 18.6219 1050.68 16.9301 1049.26C13.5347 1046.42 10.4447 1043.11 7.71899 1039.6C4.85226 1035.91 2.56123 1031.77 0.0234676 1027.82C0.0117188 1011.35 0.0117188 994.899 0.0117188 978.445Z" fill="white"/>
<path d="M0.0117489 665.548C4.2766 666.583 7.21382 669.312 9.95131 672.628C20.1258 684.931 28.773 698.256 37.1265 711.817C39.2413 715.251 41.6263 718.544 44.1406 721.708C49.8858 728.929 47.0778 739.479 38.0899 741.373C26.341 743.855 16.7187 750.253 6.77911 756.239C4.49983 757.615 2.26754 759.05 0 760.45C0 751.476 0 742.502 0 733.516C5.82745 730.247 11.6549 726.965 18.1755 723.308C12.0191 713.934 6.01543 704.807 0.0117489 695.68C0.0117489 685.636 0.0117489 675.592 0.0117489 665.548Z" fill="white"/>
<path d="M0.0117188 267.381C0.516921 269.851 1.03387 272.333 1.63307 275.261C5.22823 274.168 8.6824 273.238 12.0308 271.992C12.6183 271.768 12.9237 270.239 13.006 269.275C13.2762 265.982 13.2292 262.653 13.6404 259.384C13.8754 257.525 14.5333 255.62 15.4262 253.962C17.1298 250.763 20.4548 249.245 23.7327 249.786C27.0929 250.351 29.6072 252.762 30.2651 256.384C30.6058 258.255 30.5001 260.207 30.6763 262.112C31.3812 270.075 31.7455 278.084 32.9556 285.976C34.0717 293.244 37.4202 299.737 42.0727 305.5C44.9042 309.004 48.4524 311.427 52.9992 311.286C60.9649 311.039 68.9189 310.381 76.8729 309.887C78.459 309.792 80.0686 309.44 81.6312 309.593C84.545 309.875 85.3556 311.38 83.887 313.968C83.1821 315.203 82.0425 316.355 80.8323 317.12C69.3889 324.247 56.7471 326.011 43.6236 324.8C38.2661 324.306 33.8838 321.236 30.0184 317.531C22.5696 310.369 17.8348 301.689 15.5672 291.621C15.3558 290.692 15.0973 289.763 14.8271 288.846C14.7683 288.669 14.5568 288.54 14.1104 288.081C9.50482 290.128 4.75827 292.221 0.0117188 294.326C0.0117188 285.329 0.0117188 276.355 0.0117188 267.381Z" fill="white"/>
<path d="M0.0117188 100.03C0.411181 99.2771 0.787146 98.5126 1.21011 97.7834C4.21782 92.6554 10.6797 92.1144 14.2279 96.913C15.6495 98.8301 16.3074 101.312 17.3531 103.511C20.1258 109.368 22.6518 115.355 25.777 121C27.8801 124.811 31.299 126.975 36.1513 126.363C39.7934 125.905 42.9421 127.351 44.5517 130.903C46.1731 134.455 44.9277 137.584 42.6132 140.371C37.6551 146.357 29.1372 147.769 21.6649 143.77C16.3544 140.935 12.4303 136.584 9.12886 131.668C5.09899 125.669 2.40849 119.083 0.892886 112.003C0.669657 110.979 0.305441 109.992 0.0117188 108.98C0.0117188 106.016 0.0117188 103.029 0.0117188 100.03Z" fill="white"/>
<path d="M0.0117489 200.695C4.58207 200.636 9.15239 200.507 13.7109 200.542C15.1795 200.554 16.6834 200.836 18.0933 201.271C21.0775 202.177 23.1688 204.07 23.3215 207.363C23.4743 210.68 21.6179 213.021 18.622 213.809C12.4773 215.432 6.21516 216.631 0 218.007C0.0117489 212.244 0.0117489 206.47 0.0117489 200.695Z" fill="white"/>
<path d="M0.0117188 795.71C3.91235 794.31 7.43702 794.993 10.292 797.98C13.2644 801.108 13.4994 804.86 11.9486 808.73C11.2436 810.506 10.292 812.199 9.31684 813.846C4.53504 821.985 1.72706 830.747 0.716652 840.121C0.63441 840.932 0.246697 841.708 0.0117188 842.508C0.0117188 826.913 0.0117188 811.305 0.0117188 795.71Z" fill="white"/>
<path d="M0.0117188 155.178C2.73746 156.59 5.67468 157.719 8.10671 159.506C9.7398 160.706 11.8076 162.988 11.6314 164.552C11.4081 166.54 9.45783 168.904 7.6015 169.974C5.43971 171.233 2.57298 171.28 0.0117188 171.844C0.0117188 166.293 0.0117188 160.73 0.0117188 155.178Z" fill="white"/>
<path d="M816.489 890.671C810.274 892.094 804.4 893.635 798.467 894.775C776.59 898.974 754.573 901.456 732.25 899.762C722.416 899.021 712.723 897.385 703.547 893.645C692.515 889.141 684.679 881.649 682.54 869.382C681.424 862.972 682.693 856.833 685.196 850.929C690.107 839.368 698.049 830.099 707.225 821.749C708.071 820.972 708.917 820.197 710.526 818.727C706.931 819.162 704.276 819.668 701.62 819.762C693.749 820.032 685.795 820.961 678.029 820.137C666.433 818.914 660.946 808.859 665.187 797.992C668.5 789.488 673.729 782.055 680.425 776.045C687.545 769.671 694.971 763.319 703.207 758.58C716.213 751.088 729.747 744.349 743.529 738.386C762.715 730.07 782.335 722.767 801.78 715.051C803.765 714.263 805.774 713.509 807.819 712.921C816.83 710.31 824.126 715.098 824.161 724.437C824.208 735.88 819.25 745.489 811.108 753.393C809.98 754.487 808.124 755.169 806.526 755.369C802.52 755.863 800.57 752.851 801.921 749.064C803.66 744.171 805.105 739.184 806.738 734.033C805.845 733.915 805.516 733.762 805.293 733.856C775.815 745.782 745.914 756.744 718.598 773.421C707.859 779.973 697.779 787.242 689.977 797.286C689.214 798.262 688.532 799.297 687.581 800.615C690.894 800.615 693.725 800.803 696.533 800.579C715.461 799.062 734.388 797.45 753.316 795.874C758.685 795.427 762.856 797.921 764.242 802.332C765.675 806.883 763.678 811.435 758.791 814.058C752.387 817.48 745.867 820.678 739.417 824.007C728.161 829.817 718.386 837.521 710.667 847.601C707.777 851.376 705.321 855.61 703.359 859.95C700.622 866.019 702.161 871.206 708.341 873.852C715.026 876.71 722.193 879.133 729.371 880.038C758.415 883.732 786.823 879.568 814.833 871.77C816.63 871.265 817.594 870.406 817.558 868.465C817.535 867.301 817.793 866.136 817.887 864.96C817.993 863.583 818.064 862.208 818.169 860.432C816.419 860.291 814.762 860.255 813.129 860.02C805.763 858.949 798.22 858.492 791.1 856.504C786.013 855.093 781.008 852.247 776.837 848.942C766.991 841.156 765.593 829.347 773.265 819.397C783.099 806.636 796.234 798.439 811.625 794.04C827.298 789.571 842.795 789.57 857.798 797.038C880.768 808.47 887.288 833.558 872.461 854.481C863.896 866.572 852.782 875.78 839.364 882.072C837.05 883.154 836.145 884.367 835.992 887.036C834.066 920.415 831.927 953.782 829.93 987.149C829.589 992.782 829.672 998.451 829.566 1004.11C829.554 1004.53 829.613 1004.97 829.625 1005.39C829.742 1010.36 827.874 1013.66 824.385 1014.62C820.919 1015.58 816.736 1013.59 814.504 1009.69C811.649 1004.71 810.979 999.132 811.108 993.569C811.343 983.537 811.919 973.505 812.483 963.485C813.787 940.127 815.174 916.769 816.513 893.411C816.525 892.588 816.489 891.753 816.489 890.671ZM836.85 862.738C846.003 856.951 853.357 850.553 858.492 841.92C863.473 833.523 861.335 824.114 853.275 818.574C851.525 817.374 849.609 816.398 847.671 815.504C831.128 807.859 805.892 812.87 790.278 830.194C788.656 831.994 788.785 833.617 790.853 834.569C794.601 836.287 798.373 838.309 802.355 839.062C809.452 840.403 816.724 840.791 823.903 841.779C831.469 842.814 836.133 847.788 836.815 855.421C837.015 857.609 836.85 859.833 836.85 862.738Z" fill="white"/>
<path d="M225.238 239.836C228.728 229.545 232.205 219.254 235.695 208.963C236.212 207.446 236.576 205.858 237.281 204.447C238.808 201.377 241.816 199.825 244.894 200.283C248.066 200.754 250.886 202.965 251.039 206.34C251.227 210.539 251.039 214.926 250.04 218.984C248.031 227.169 245.446 235.214 242.955 243.282C238.702 257.067 234.567 270.886 229.949 284.541C227.811 290.88 224.886 296.996 221.854 302.971C218.988 308.616 214.077 312.157 208.143 314.379C202.128 316.638 196.618 315.838 192.153 311.369C188.946 308.158 186.056 304.465 183.718 300.583C180.534 295.291 177.867 289.669 175.235 284.059C167.481 267.57 155.837 254.256 142.056 242.624C138.097 239.272 133.738 237.19 128.439 237.014C126.383 236.943 124.162 236.308 122.353 235.32C115.95 231.815 115.727 222.641 122.189 219.395C125.889 217.537 127.875 214.75 129.496 211.374C135.148 199.589 138.12 187.028 139.882 174.173C141.304 163.776 141.774 153.332 140.329 142.864C139.506 136.901 137.403 131.526 133.585 126.834C132.716 125.763 131.87 124.646 131.165 123.458C129.003 119.8 129.179 115.802 131.529 112.967C133.808 110.227 137.591 109.215 141.469 110.662C144.147 111.673 146.791 112.92 149.246 114.39C159.574 120.541 169.431 119.401 178.912 112.614C187.301 106.616 193.399 98.7712 196.912 89.0446C201.705 75.8015 197.205 62.5583 185.445 54.8546C172.356 46.2924 152.9 47.5979 140.893 57.8537C133.867 63.852 134.478 72.8141 142.338 77.6833C144.042 78.7418 145.968 79.4945 147.872 80.1296C151.067 81.1881 154.322 82.0232 158.117 83.1287C158.117 82.176 158.316 80.9764 158.081 79.8709C157.224 75.7309 158.446 72.0967 161.277 69.2975C162.499 68.0861 165.002 67.2745 166.611 67.6509C168.056 67.992 169.56 70.0267 170.112 71.638C170.735 73.461 170.618 75.6721 170.336 77.648C169.313 84.8224 166.917 91.5381 163.039 97.6775C161.97 99.3712 160.654 100.971 159.209 102.37C157.001 104.511 154.31 105.416 151.267 104.287C148.118 103.111 146.603 100.618 146.297 97.4187C146.098 95.3134 146.262 93.173 146.262 90.7383C145.393 90.6207 144.476 90.5031 143.572 90.3619C134.29 88.8918 127.1 84.3873 123.387 75.5192C119.721 66.7571 120.79 58.3594 126.583 50.7264C127.734 49.2092 129.05 47.7625 130.46 46.4688C149.587 29.0974 181.908 29.4149 200.46 47.245C211.163 57.5362 215.017 70.3442 213.313 84.9047C210.928 105.299 191.636 127.551 171.863 132.279C166.576 133.549 160.948 133.42 155.132 133.973C155.309 135.361 155.661 137.207 155.779 139.065C157.541 166.457 154.909 193.262 145.087 219.101C144.453 220.783 144.57 221.548 146.133 222.724C150.633 226.111 155.262 229.463 159.174 233.485C171.44 246.117 181.638 260.301 190.027 275.814C193.269 281.812 196.97 287.564 200.789 293.221C202.868 296.302 204.196 296.244 205.711 292.786C209.072 285.188 212.15 277.449 214.97 269.628C217.778 261.854 217.625 261.724 211.245 256.49C198.674 246.164 193.634 232.697 194.797 216.737C195.455 207.705 198.11 199.107 201.588 190.804C203.232 186.875 204.995 182.935 207.192 179.289C221.643 155.261 236.987 131.891 257.042 112.038C272.269 96.9718 286.368 80.9764 297.846 62.817C298.363 62.0055 298.88 61.194 299.362 60.3706C299.515 60.1119 299.538 59.7708 299.667 59.3239C299.186 59.1122 298.727 58.8534 298.246 58.7123C292.395 57.1363 289.27 53.0552 288.388 47.3274C287.143 39.2121 288.341 31.4143 291.89 23.9342C296.119 15.0073 303.826 10.7733 312.72 8.44455C319.629 6.63335 325.738 10.2558 328.593 17.1949C331.225 23.5696 331.037 30.1324 329.568 36.7304C327.324 46.7746 322.613 55.772 317.349 64.4754C305.048 84.8223 291.361 104.146 274.642 121.165C256.596 139.536 242.885 161.047 229.844 183.029C223.863 193.109 219.422 203.847 217.543 215.514C216.685 220.865 216.52 226.24 218.565 231.321C219.834 234.473 221.913 237.296 223.629 240.272C224.181 240.083 224.709 239.954 225.238 239.836Z" fill="white"/>
<path d="M428.423 227.075C436.836 234.932 442.334 244.482 448.15 253.821C453.284 262.053 452.403 268.111 444.484 273.744C416.557 293.597 388.524 313.297 360.479 332.998C353.841 337.655 347.144 342.254 340.26 346.558C335.114 349.769 329.827 352.862 324.269 355.25C316.644 358.531 309.748 353.58 310.782 345.323C311.346 340.842 313.413 336.338 315.634 332.315C326.807 312.11 341.047 294.091 356.038 276.673C361.889 269.875 368.116 263.406 374.167 256.784C374.66 256.243 375.13 255.691 375.788 254.938C374.884 254.467 374.179 254.068 373.45 253.715C364.427 249.316 355.298 245.153 346.416 240.483C332.411 233.121 331.507 221.489 344.066 211.786C353.113 204.8 363.264 199.848 374.014 196.096C392.354 189.71 410.718 183.359 429.058 176.984C430.315 176.549 431.537 175.961 433.558 175.114C431.678 174.279 430.562 173.773 429.445 173.279C414.325 166.528 401.883 156.625 393.459 142.171C388.559 133.773 386.468 124.74 388.759 115.061C389.922 110.145 392.331 105.911 396.419 102.806C399.521 100.453 402.987 99.6301 406.641 101.3C410.342 102.994 412.186 106.263 411.869 110.121C410.671 124.611 418.343 134.161 429.175 141.971C441.371 150.756 454.929 156.155 469.92 157.754C474.878 158.284 479.637 157.743 484.348 155.79C486.498 154.896 489.177 154.567 491.48 154.908C495.439 155.484 498.811 157.484 500.009 161.694C501.208 165.905 499.516 169.363 496.344 171.939C490.622 176.572 484.607 180.854 478.861 185.452C468.616 193.65 458.43 201.918 448.302 210.257C441.723 215.643 435.285 221.242 428.423 227.075ZM433.193 263.077C427.295 256.561 421.903 250.551 416.439 244.6C413.338 241.224 409.848 238.178 406.993 234.614C401.789 228.11 402.975 222.03 409.508 216.937C419.858 208.869 430.021 200.542 440.243 192.321C441.042 191.686 441.735 190.909 442.475 190.204C414.936 200.389 387.948 211.598 361.748 225.382C369.879 230.016 377.985 233.991 386.186 237.778C389.863 239.472 393.823 240.566 397.441 242.365C404.232 245.741 406.077 253.115 401.894 259.431C400.896 260.936 399.709 262.359 398.381 263.571C380.934 279.554 366.8 298.302 353.277 317.567C352.796 318.249 352.42 319.013 351.656 320.319C378.925 301.172 405.548 282.483 433.193 263.077Z" fill="white"/>
<path d="M516.94 829.712C516.481 830.747 516 831.794 515.565 832.852C509.632 847.507 503.934 862.255 497.671 876.757C494.217 884.767 489.952 892.447 485.77 900.115C482.844 905.466 478.039 907.607 472.999 906.443C467.853 905.255 463.799 900.621 463.917 894.681C464.011 889.73 464.751 884.649 466.137 879.886C468.135 873.029 470.661 866.289 473.492 859.738C486.839 828.971 500.35 798.286 513.861 767.589C515.013 764.954 516.34 762.355 517.926 759.968C521.533 754.546 527.561 752.558 532.965 754.746C538.405 756.957 541.142 762.496 539.991 769.012C539.967 769.118 539.956 769.224 539.932 769.329C537.477 780.467 534.986 791.594 532.636 802.743C532.354 804.084 532.436 805.825 533.047 807.001C541.013 822.255 550.718 836.239 563.677 847.742C572.512 855.587 576.718 855.74 586.27 848.824C592.638 844.214 597.149 838.027 600.932 831.253C608.98 816.869 614.549 801.45 617.909 785.442C622.985 761.226 627.038 736.786 631.55 712.44C632.149 709.194 632.619 705.901 633.524 702.737C634.546 699.138 637.084 696.88 640.902 696.598C644.85 696.304 648.045 698.185 649.291 701.773C650.595 705.536 651.735 709.7 651.464 713.593C650.607 726.248 649.537 738.927 647.716 751.476C644.297 774.963 639.281 798.133 631.033 820.479C627.144 831.029 622.562 841.25 616.3 850.635C610.472 859.362 603.376 866.795 594.177 872.053C579.82 880.25 566.59 879.427 553.714 869.053C540.672 858.539 529.758 845.966 519.783 832.535C519.148 831.676 518.49 830.841 517.809 830.018C517.68 829.9 517.41 829.888 516.94 829.712Z" fill="white"/>
<path d="M615.301 912.264C613.903 909.23 612.529 906.901 611.73 904.396C610.449 900.397 610.919 896.493 614.009 893.376C617.099 890.259 621.094 889.542 624.983 890.988C628.096 892.141 631.221 893.929 633.618 896.198C641.29 903.455 644.016 912.923 644.309 923.167C644.591 932.882 643.252 942.35 639.022 951.241C638.799 951.724 638.611 952.229 638.458 952.735C638.411 952.911 638.529 953.135 638.517 953.029C644.862 953.547 651.183 953.605 657.315 954.676C668.994 956.71 678.792 962.332 685.818 972.094C695.335 985.314 693.197 999.133 680.144 1008.84C669.205 1016.96 656.928 1018.53 643.91 1015.53C635.486 1013.59 627.45 1010.82 621.728 1003.52C620.342 1004.31 619.155 1005 617.957 1005.67C602.26 1014.4 586.364 1022.69 568.694 1026.8C558.742 1029.11 548.791 1029.22 538.981 1026.03C522.556 1020.68 515.189 1006.86 519.936 990.206C522.744 980.374 528.172 972.059 536.032 965.649C542.47 960.403 549.331 955.628 556.263 951.053C572.829 940.103 589.56 929.412 606.208 918.58C609.321 916.557 612.317 914.346 615.301 912.264ZM622.398 929.224C621.646 929.742 621.282 929.953 620.964 930.212C604.328 943.914 587.68 957.604 571.079 971.341C565.745 975.764 560.117 979.951 555.406 984.984C551.846 988.795 549.449 993.711 546.735 998.275C545.56 1000.25 546.3 1002.1 548.544 1002.9C551.646 1004 554.748 1005.26 557.955 1005.86C568.799 1007.91 579.091 1005.19 588.749 1000.73C598.783 996.099 608.417 990.548 618.074 985.126C625.088 981.186 630.857 981.891 635.662 987.889C642.277 996.158 657.597 1000.06 667.443 995.981C675.221 992.759 676.078 988.101 669.781 982.409C664.694 977.822 658.443 975.752 651.782 976.128C644.897 976.516 638.036 977.728 631.209 978.833C625.84 979.692 620.577 981.174 615.196 981.915C610.05 982.62 605.62 979.927 603.952 975.775C602.295 971.659 603.423 966.931 607.441 964.085C613.892 959.51 617.24 952.958 619.966 945.925C621.963 940.739 623.232 935.375 622.398 929.224Z" fill="white"/>
<path d="M982.325 833.887C976.674 834.981 971.399 836.322 966.041 836.922C961.952 837.38 957.699 837.345 953.622 836.792C938.854 834.805 931.405 822.549 936.833 808.647C943.283 792.123 955.091 780.256 971.305 773.434C989.257 765.872 1008.15 764.26 1027.19 768.318C1032.1 769.365 1035.91 769.13 1040.39 766.989C1049.01 762.884 1058.13 760.144 1067.9 760.944C1072.04 761.285 1075.57 762.861 1077.86 766.507C1081.11 771.658 1079 777.527 1073.21 779.35C1070.78 780.115 1068.22 780.491 1065.72 780.973C1055.89 782.878 1046.57 786.078 1037.84 791.041C1035.44 792.405 1032.9 793.687 1030.27 794.405C1023.5 796.251 1018.62 792.005 1019.13 785.043C1019.17 784.525 1019.13 783.996 1019.13 782.926C1014.15 782.926 1009.16 782.561 1004.25 782.996C985.756 784.631 969.824 791.147 959.45 807.624C958.028 809.871 956.947 812.329 955.69 814.681C954.645 816.645 955.408 817.998 957.417 818.033C962.481 818.115 967.709 818.586 972.585 817.574C977.837 816.492 982.783 813.893 987.847 811.941C989.233 811.4 990.561 810.67 991.983 810.223C996.153 808.906 1000.28 810.247 1002.5 813.54C1004.73 816.869 1004.52 821.232 1001.66 824.525C997.928 828.853 997.81 833.817 998.773 839.003C999.22 841.45 1000.75 842.261 1002.98 841.05C1005.79 839.521 1008.52 837.862 1011.26 836.204C1013.36 834.934 1015.33 833.417 1017.5 832.311C1022.93 829.547 1027.98 831.429 1030.41 837.004C1031.14 838.662 1031.69 840.403 1032.39 842.073C1033.58 844.978 1035.82 845.754 1038.65 844.872C1043.11 843.484 1045.87 840.532 1046.66 835.816C1047.41 831.323 1045.64 827.901 1041.76 825.948C1036.05 823.079 1030.2 820.479 1024.29 818.045C1020.24 816.375 1018.43 814.763 1018.4 811.776C1018.38 808.777 1020.34 805.825 1024.16 804.954C1027.91 804.108 1032.03 803.555 1035.75 804.225C1043.55 805.637 1050.4 809.447 1056.06 815.093C1064.1 823.102 1066.09 835.804 1061.11 846.272C1056.44 856.116 1044.94 862.549 1033.99 861.385C1028.04 860.762 1023.3 857.939 1019.78 853.117C1019.16 852.27 1018.58 851.388 1017.88 850.377C1015.57 851.47 1013.38 852.517 1011.19 853.564C993.839 861.914 984.275 850.341 982.654 837.133C982.536 836.11 982.443 835.052 982.325 833.887Z" fill="white"/>
<path d="M246.198 829.583C245.446 842.614 248.031 857.08 253.8 871.041C257.019 878.839 259.78 886.825 262.835 894.681C266.771 904.808 269.109 915.322 270.366 926.06C272.48 944.055 263.775 958.004 246.48 963.555C240.03 965.625 233.075 966.025 226.448 967.601C211.727 971.118 196.923 974.388 182.437 978.704C167.68 983.114 155.779 992.912 143.489 1001.76C135.312 1007.64 127.875 1014.36 121.66 1022.35C117.454 1027.75 117.818 1031.12 123.105 1035.4C123.681 1035.88 124.397 1036.23 124.856 1036.79C125.666 1037.79 126.336 1038.91 127.053 1039.98C125.878 1040.59 124.75 1041.53 123.505 1041.78C116.479 1043.18 109.958 1042.21 105.188 1036.35C100.124 1030.11 99.278 1022.95 101.992 1015.5C104.377 1008.97 108.466 1003.39 113.553 998.78C134.748 979.574 158.645 965.014 186.62 958.039C200.589 954.558 214.735 951.782 228.822 948.795C235.225 947.431 241.487 945.937 246.739 941.597C251.191 937.916 253.33 933.517 251.814 927.778C249.335 918.404 247.126 908.924 244.119 899.715C240.77 889.471 236.494 879.533 232.934 869.359C226.554 851.082 226.061 832.546 231.171 813.881C231.735 811.835 232.511 809.8 233.533 807.954C235.178 804.954 238.138 803.625 241.04 804.343C244.26 805.131 246.022 807.436 246.139 810.565C246.351 816.21 246.198 821.879 246.198 829.583Z" fill="white"/>
<path d="M159.632 1051.53C160.138 1050.09 160.478 1049 160.901 1047.95C165.19 1037.35 171.922 1028.5 180.393 1020.91C193.363 1009.31 208.59 1001.83 224.909 996.287C256.866 985.443 289.904 979.314 322.965 973.163C336.794 970.588 350.575 967.648 364.192 964.155C369.655 962.756 374.884 959.851 379.748 956.863C386.703 952.582 390.674 945.925 392.296 937.904C392.613 936.34 392.907 934.751 393.412 933.246C394.246 930.705 396.102 929.389 398.781 929.624C401.448 929.859 403.304 931.518 403.481 934.093C403.939 940.786 404.42 947.488 401.601 953.957C397.806 962.661 391.931 969.506 384.036 974.645C372.158 982.384 358.988 986.972 345.3 990.183C322.66 995.511 299.797 1000.03 277.391 1006.2C260.884 1010.75 244.765 1016.93 228.822 1023.28C214.5 1028.98 201.799 1037.45 192.412 1050.15C191.918 1050.82 190.884 1051.46 190.085 1051.47C180.099 1051.55 170.077 1051.53 159.632 1051.53Z" fill="white"/>
<path d="M444.848 62.6525C448.514 63.0641 452.18 63.8756 455.834 63.7933C461.579 63.6639 467.324 63.0406 473.046 62.4408C481.27 61.5822 487.297 68.0979 484.912 75.4135C483.678 79.1888 480.636 80.9295 477.334 82.7173C472.705 85.2459 468.217 88.1392 464.023 91.3265C462.131 92.7614 461.074 95.3136 459.64 97.3601C459.793 97.7011 459.946 98.054 460.098 98.3951C462.671 98.595 465.362 99.3595 467.818 98.9008C475.125 97.513 482.363 95.7723 489.565 93.914C494.405 92.6673 499.128 90.9502 503.934 89.5035C505.05 89.1742 506.236 89.0448 507.399 88.9507C510.113 88.7155 512.557 89.3624 514.085 91.797C515.671 94.3256 515.635 97.266 513.756 99.3124C510.478 102.864 507.059 106.604 502.97 109.027C495.016 113.732 486.04 116.19 476.923 117.448C471.072 118.26 464.951 118.718 459.123 117.966C443.098 115.896 435.861 102.829 441.935 87.951C442.217 87.2689 442.452 86.5867 442.828 85.587C441.758 85.3047 440.866 85.1401 440.008 84.8343C435.402 83.2112 430.491 82.141 426.262 79.8122C416.122 74.2373 413.044 63.1935 418.813 53.1729C421.221 48.9859 424.476 45.1047 428.012 41.8115C431.643 38.436 435.849 35.4487 440.255 33.1552C463.224 21.1822 487.603 13.1375 512.968 8.16245C517.045 7.36265 521.451 7.91545 525.657 8.31535C527.431 8.47995 529.276 9.63255 530.745 10.7852C533.517 12.9493 534.398 15.9837 533.494 19.4063C532.671 22.4877 529.875 24.346 526.362 24.9811C521.357 25.8867 516.246 26.6512 511.465 28.2978C491.632 35.1311 472.682 43.9403 454.6 54.596C451.569 56.3837 448.737 58.489 445.835 60.4767C445.424 60.7589 445.13 61.2176 444.778 61.5939C444.801 61.935 444.825 62.2879 444.848 62.6525Z" fill="white"/>
<path d="M299.856 839.462C294.569 838.827 288.635 837.192 283.337 833.805C279.377 831.276 278.484 827.277 278.872 822.843C279.424 816.516 281.915 810.87 284.981 805.437C294.146 789.135 305.471 774.422 318.172 760.779C335.208 742.479 354.03 726.213 375.847 713.828C381.898 710.394 388.571 707.759 395.268 705.819C403.152 703.537 406.653 705.936 411.693 712.475C414.783 716.498 415.171 720.344 414.031 724.731C412.856 729.259 411.846 733.916 409.99 738.186C392.496 778.444 364.463 809.306 326.49 831.135C318.583 835.71 310.124 838.968 299.856 839.462ZM297.576 821.797C297.929 822.126 298.269 822.455 298.622 822.773C302.064 821.761 305.589 820.973 308.937 819.715C319.218 815.834 328.394 809.929 336.97 803.202C356.403 787.959 373.039 769.953 387.925 750.323C393.894 742.443 398.041 733.505 400.59 723.907C401.201 721.626 401.413 719.226 401.953 715.957C398.57 717.015 395.809 717.356 393.623 718.662C386.233 723.096 378.667 727.377 371.853 732.599C353.219 746.889 337.029 763.802 322.155 781.867C314.859 790.723 308.644 800.485 302.37 810.129C300.114 813.587 299.139 817.88 297.576 821.797Z" fill="white"/>
<path d="M1395.85 300.266C1400.21 298.96 1404.12 297.561 1408.14 296.643C1413.54 295.408 1418.75 296.302 1423.6 299.043C1427.39 301.195 1431.19 303.371 1435.32 305.735C1436.24 302.971 1437.02 300.36 1437.98 297.831C1439.16 294.75 1440.32 291.633 1441.81 288.693C1443.14 286.094 1445.51 284.812 1448.5 285.435C1451.43 286.046 1453.41 288.081 1453.48 290.974C1453.58 295.209 1453.15 299.478 1452.75 303.712C1452.07 310.933 1450.93 318.131 1450.53 325.364C1450.14 332.315 1451.54 333.903 1458.24 335.832C1461.3 336.714 1464.5 337.185 1467.56 338.078C1472.53 339.537 1473.51 343.112 1470.15 347.041C1467.23 350.451 1463.3 351.627 1459.03 351.968C1442.88 353.274 1431.88 343.289 1432.26 327.117C1432.36 322.601 1431.05 319.86 1427.15 317.943C1425.15 316.967 1423.27 315.685 1421.47 314.356C1415.26 309.781 1409.05 310.522 1403.02 314.485C1400.74 315.979 1398.63 317.908 1396.85 319.99C1391.37 326.376 1383.63 325.541 1380.75 317.602C1375.38 302.783 1376.19 288.152 1384.39 274.45C1389.72 265.57 1396.91 258.172 1405.01 251.821C1415.59 243.553 1424.88 234.026 1433.88 224.147C1449.96 206.493 1454.86 186.052 1448.87 162.964C1448.64 162.035 1448.1 161.024 1448.3 160.177C1448.65 158.636 1449.06 156.496 1450.15 155.896C1451.43 155.19 1454.02 155.225 1455.06 156.096C1457.03 157.73 1458.68 160.036 1459.8 162.376C1464.2 171.609 1464.17 181.442 1462.74 191.274C1460.44 206.858 1454.9 221.089 1445.15 233.685C1436.37 245.023 1427.23 255.914 1416.79 265.817C1410.73 271.557 1405.79 278.543 1400.78 285.294C1397.55 289.634 1396.1 294.844 1395.85 300.266Z" fill="white"/>
<path d="M1379.18 793.475C1373.83 812.458 1376.72 829.418 1388.65 844.225C1402.19 861.044 1420.13 871.676 1440.68 877.58C1450.27 880.333 1460.31 881.497 1470.15 883.402C1472.44 883.849 1474.81 884.143 1476.96 884.99C1479.78 886.096 1481.32 888.413 1481.12 891.553C1480.93 894.693 1479.09 896.728 1476.19 897.575C1474.38 898.104 1472.39 898.363 1470.51 898.268C1446.47 897.01 1423.4 891.882 1401.89 880.721C1386.99 872.982 1375.24 861.856 1367.28 847.06C1357.24 828.43 1356.34 809.118 1364.42 789.594C1369.01 778.492 1374.05 776.316 1385.69 779.597C1400.78 783.855 1413.34 792.323 1424 803.637C1430.45 810.494 1436.39 817.786 1440.47 826.383C1443.82 833.44 1446.04 840.897 1444.55 848.706C1443.92 851.952 1441.76 855.046 1439.78 857.845C1438.27 859.962 1435.65 860.468 1433.08 859.621C1430.48 858.774 1429.13 856.81 1428.77 854.152C1428.63 853.093 1428.49 852.011 1428.57 850.965C1429.25 842.344 1426.33 834.722 1421.85 827.677C1411.62 811.564 1396.49 801.52 1379.18 793.475Z" fill="white"/>
<path d="M474.879 1051.44C467.442 1051.44 460.322 1051.44 452.779 1051.44C449.666 1014.38 452.192 977.351 453.519 939.762C449.783 941.809 446.611 943.444 443.568 945.302C442.992 945.655 442.746 946.925 442.746 947.772C442.863 971.694 443.063 995.617 443.168 1019.54C443.192 1025.41 443.145 1031.29 442.769 1037.15C442.605 1039.74 441.923 1042.48 440.76 1044.8C438.058 1050.16 431.279 1050.74 427.93 1045.77C426.215 1043.21 424.828 1039.92 424.711 1036.9C424.135 1021.55 423.63 1006.17 423.853 990.818C424.065 975.987 425.193 961.168 425.933 946.349C426.379 937.539 428.294 934.834 436.801 933.152C444.202 931.694 450.23 927.872 456.045 923.52C458.783 921.473 461.602 920.227 464.927 921.732C468.229 923.226 469.439 926.19 469.615 929.553C470.461 945.443 471.319 961.321 472 977.222C473.034 1001.33 473.927 1025.44 474.879 1049.57C474.89 1050.07 474.879 1050.6 474.879 1051.44Z" fill="white"/>
<path d="M1091.95 904.537C1096.23 905.337 1100.6 905.796 1104.76 907.007C1110.08 908.56 1112.68 912.394 1111.97 916.546C1111.28 920.627 1107.86 923.002 1102.35 923.261C1097.66 923.485 1092.92 923.296 1088.31 924.049C1077.58 925.79 1068.84 931.082 1063.03 940.397C1057.8 948.76 1057.89 957.404 1063.18 965.802C1071.72 979.398 1098.44 990.583 1117.32 974.164C1125.87 966.719 1128.98 957.369 1126.38 946.207C1125.89 944.137 1125.41 942.009 1125.41 939.915C1125.42 935.611 1128.15 931.988 1132.04 930.6C1136.02 929.177 1140.69 930.294 1143.28 933.811C1144.76 935.822 1145.96 938.257 1146.53 940.668C1149.63 953.911 1147.35 966.037 1138.79 976.893C1121.91 998.322 1087.45 1005.95 1063.63 993.429C1032.96 977.293 1029.82 936.657 1057.67 916.004C1066.99 909.101 1079.77 904.984 1091.95 904.537Z" fill="white"/>
<path d="M346.499 928.13C320.064 927.778 289.763 907.819 279.53 883.579C277.215 878.098 276.076 872.382 276.534 866.395C277.227 857.422 282.573 850.494 291.114 847.624C297.048 845.625 303.169 845.449 309.114 847.048C335.948 854.281 354.594 871.006 365.062 896.681C366.589 900.433 366.636 904.796 367.318 908.877C367.564 910.347 367.588 911.853 367.905 913.299C369.197 919.11 366.73 923.826 360.891 925.402C356.191 926.672 351.304 927.248 346.499 928.13ZM295.179 871.041C299.562 893.27 331.213 912.359 345.899 910.112C345.935 909.818 346.052 909.477 345.982 909.195C345.711 908.277 345.429 907.348 345.053 906.478C339.297 893.011 329.674 882.979 317.032 875.946C313.002 873.699 308.397 872.323 303.897 871.17C301.254 870.488 298.293 871.041 295.179 871.041Z" fill="white"/>
<path d="M1323.15 1051.53C1315.94 1051.53 1309.01 1051.61 1302.1 1051.42C1301.33 1051.4 1300.17 1050.02 1299.9 1049.06C1298.18 1043.18 1298.25 1043.16 1292.14 1042.32C1274.14 1039.86 1257.45 1034.4 1243.86 1021.59C1235.39 1013.59 1229.14 1004.34 1227.71 992.547C1227.23 988.595 1227.36 984.408 1228.09 980.503C1229.11 975.023 1233.91 971.447 1239.02 971.424C1244.17 971.4 1248.35 974.693 1250 980.08C1250.28 980.997 1250.51 981.938 1250.64 982.879C1252.9 998.78 1263.06 1008.34 1276.94 1014.14C1284.14 1017.15 1292.11 1018.33 1299.72 1020.37C1301.85 1020.94 1302.76 1019.96 1303.48 1018.07C1306.19 1010.94 1309.61 1004.14 1314.88 998.557C1317.47 995.805 1320.5 993.276 1323.77 991.406C1328.13 988.901 1333.3 989.865 1336.49 993.135C1340.03 996.746 1340.43 1001.01 1338.74 1005.59C1338.41 1006.48 1337.99 1007.38 1337.48 1008.18C1329.21 1021.31 1323.83 1035.42 1323.15 1051.53Z" fill="white"/>
<path d="M91.7822 151.203C90.478 152.614 89.8554 153.179 89.3619 153.838C74.1471 173.95 66.3928 196.614 66.7453 221.842C66.8275 227.64 67.7087 233.65 69.5063 239.131C71.0924 243.953 74.1353 248.434 77.19 252.574C80.3975 256.937 80.9849 261.418 77.7305 264.688C74.4408 267.993 69.3535 267.711 65.4529 263.876C56.5942 255.197 52.1767 244.27 50.6376 232.262C46.4902 200.119 56.0303 171.903 76.1796 147.051C79.1521 143.394 83.2055 140.547 86.9769 137.607C89.5146 135.631 92.2404 136.09 95.3891 137.137C106.116 140.688 109.735 149.121 110.757 159.036C112.954 180.489 106.868 200.024 95.8943 218.231C95.1423 219.478 94.0027 220.571 92.8161 221.442C89.8083 223.665 86.4834 224.088 83.2172 222.147C79.9158 220.195 78.6469 216.996 79.3753 213.35C79.8688 210.88 80.9614 208.493 82.0893 206.211C88.0343 194.273 92.7456 181.947 94.1672 168.586C94.5549 164.905 94.3787 161.13 94.0379 157.425C93.8617 155.578 92.7573 153.779 91.7822 151.203Z" fill="white"/>
<path d="M747.653 964.308C739.616 965.625 732.403 965.614 725.306 963.649C710.949 959.686 700.716 951.194 696.169 936.634C695.793 935.422 695.558 934.14 695.476 932.87C695.253 929.6 696.451 926.989 699.47 925.472C702.22 924.096 705.733 924.555 707.977 927.154C710.256 929.8 712.124 932.823 713.969 935.81C720.113 945.749 729.254 950.206 740.627 949.889C745.256 949.759 749.897 948.524 754.444 947.431C755.959 947.066 757.181 945.537 758.614 944.667C761.035 943.197 763.373 941.303 766.016 940.562C769.929 939.48 773.43 941.021 775.803 944.408C778.188 947.795 778.435 951.606 776.12 954.958C766.956 968.236 762.468 983.632 756.464 998.31C754.185 1003.87 752.94 1009.96 751.976 1015.95C750.625 1024.33 753.186 1031.54 760.048 1036.97C762.938 1039.26 765.887 1041.78 764.266 1046.08C762.679 1050.26 758.838 1050.95 755.019 1051.07C747.653 1051.29 742.107 1047.53 737.854 1041.99C730.582 1032.51 727.644 1021.7 730.546 1010C732.544 1001.96 735.375 994.088 738.277 986.302C740.979 979.116 744.269 972.165 747.653 964.308Z" fill="white"/>
<path d="M857.974 970.636C858.139 964.108 859.525 957.898 862.627 952.147C865.247 947.289 868.995 945.243 873.201 946.196C877.466 947.16 880.368 950.924 880.227 956.404C880.086 961.721 879.205 967.025 878.829 972.341C878.711 973.952 879.216 975.611 879.44 977.234C881.167 976.622 883.305 976.446 884.55 975.305C887.429 972.647 889.896 969.542 892.493 966.578C895.371 963.297 897.838 959.556 901.105 956.734C910.374 948.736 921.172 950.277 928.104 960.38C930.207 963.449 931.91 966.813 933.649 970.106C934.765 972.223 936.046 972.588 937.937 971.106C940.804 968.883 943.647 966.613 946.62 964.532C949.322 962.638 952.071 960.744 954.997 959.262C959.896 956.793 964.76 957.322 969.213 960.497C971.116 961.85 972.667 963.732 974.617 964.99C976.521 966.225 978.647 967.413 980.821 967.813C982.971 968.213 983.476 969.083 983.347 970.965C983.041 975.446 979.105 978.986 974.159 979.057C969.93 979.127 966.111 977.704 962.986 974.928C960.871 973.058 959.156 973.247 957.029 974.658C952.847 977.434 948.664 980.197 944.376 982.797C934.542 988.76 926.846 987.29 919.785 978.151C917.894 975.705 916.178 973.117 914.451 970.542C913.3 968.836 912.019 968.566 910.515 969.989C908.659 971.753 906.85 973.564 905.017 975.352C900.964 979.292 897.227 983.655 892.763 987.043C889.285 989.677 885.091 991.912 880.873 992.923C870.099 995.499 860.042 987.654 858.374 976.046C858.151 974.27 858.115 972.447 857.974 970.636Z" fill="white"/>
<path d="M1511.77 484.553C1473.23 481.013 1446.67 447.658 1451.88 409.587C1452.81 402.754 1454.77 396.038 1456.58 389.358C1457.2 387.064 1458.55 384.841 1460.01 382.912C1462.34 379.819 1465.65 378.667 1469.41 379.819C1473.05 380.937 1475.07 383.724 1475.29 387.429C1475.49 390.71 1475.18 394.039 1475.02 397.332C1474.74 403.306 1474.1 409.281 1474.18 415.244C1474.44 432.18 1481.36 445.553 1496.07 454.456C1498.98 456.221 1501.91 458.396 1505.12 459.137C1511.2 460.549 1512.47 464.042 1511.87 469.664C1511.36 474.521 1511.77 479.461 1511.77 484.553Z" fill="white"/>
<path d="M218.753 82.6699C219.481 74.9075 220.233 67.1451 220.938 59.3826C221.808 49.6207 222.419 39.8118 223.617 30.0852C223.981 27.1802 225.567 24.2046 227.306 21.7582C230.196 17.6771 234.532 16.7832 239.302 18.2651C245.893 20.3233 250.346 24.6868 252.778 31.0026C256.42 40.4469 261.695 48.9386 267.452 57.195C271.541 63.0639 270.436 68.7093 264.82 72.3788C255.01 78.8123 245.27 85.3633 235.507 91.8673C234.532 92.5141 233.592 93.2433 232.57 93.8079C226.119 97.3715 219.152 93.5374 218.682 86.1865C218.612 85.0222 218.671 83.8461 218.671 82.6699C218.694 82.6817 218.718 82.6699 218.753 82.6699Z" fill="white"/>
<path d="M1511.76 921.956C1511.76 926.331 1511.83 930.6 1511.69 934.858C1511.67 935.516 1510.78 936.516 1510.11 936.716C1487.94 943.338 1472.06 957.757 1460.55 977.293C1458 981.621 1456.36 986.643 1455.17 991.559C1453.74 997.557 1455.38 1002.91 1460.68 1006.82C1464.46 1009.62 1465.16 1014.21 1462.66 1017.56C1460.22 1020.84 1455.64 1021.43 1451.74 1018.93C1442.2 1012.81 1438.18 1003.64 1437.43 992.723C1436.76 982.973 1438.96 973.635 1443.29 965.12C1454.52 943.02 1472.02 928.295 1496.36 922.379C1501.33 921.144 1506.44 920.744 1511.76 921.956Z" fill="white"/>
<path d="M1511.61 750.206C1511.61 754.71 1511.61 759.262 1511.61 764.002C1492.06 769.13 1473.33 776.08 1457.44 790.053C1460.63 794.028 1463.19 798.027 1467.73 800.191C1469.55 801.061 1471.42 801.967 1472.94 803.249C1478.46 807.883 1477.35 815.669 1470.84 818.75C1467.15 820.491 1463.32 820.456 1459.62 819.044C1450 815.363 1443 808.742 1438.88 799.297C1436.44 793.687 1437.91 788.1 1441.16 783.467C1444.24 779.08 1447.92 774.775 1452.21 771.623C1468.69 759.485 1487.38 752.628 1507.67 750.123C1508.73 749.994 1509.8 749.994 1510.87 749.959C1511.05 749.959 1511.25 750.088 1511.61 750.206Z" fill="white"/>
<path d="M337.499 145.817C330.191 158.342 323.294 170.245 325.409 185.017C325.985 189.016 324.692 190.004 320.71 189.028C316.492 187.993 313.601 185.205 311.827 181.336C308.831 174.773 308.232 167.963 310.335 161.036C314.154 148.498 320.616 137.407 328.969 127.375C330.743 125.246 332.494 123.117 334.221 120.941C336.7 117.836 339.837 116.343 343.784 117.225C347.72 118.095 350.058 120.741 350.951 124.587C351.304 126.128 351.48 127.786 351.327 129.351C350.763 134.961 352.279 140.077 355.58 144.417C359.305 149.321 363.581 153.802 367.658 158.425C368.645 159.542 370.161 160.306 370.819 161.553C371.629 163.129 372.616 165.399 372.029 166.705C371.359 168.198 369.009 169.892 367.458 169.821C364.498 169.692 361.325 168.857 358.705 167.457C350.658 163.129 344.372 156.79 339.543 149.027C338.991 148.145 338.427 147.275 337.499 145.817Z" fill="white"/>
<path d="M1394.11 99.171C1393.89 99.8532 1393.63 101.37 1392.91 102.629C1388.26 110.791 1383.48 118.883 1378.81 127.034C1378.14 128.198 1377.6 129.515 1377.41 130.832C1376.83 134.89 1374.34 137.313 1370.27 136.925C1368.1 136.713 1365.88 135.984 1363.9 135.019C1356.9 131.609 1349.92 128.127 1343.1 124.375C1340.76 123.094 1338.46 121.247 1336.89 119.106C1334.91 116.378 1335.58 113.202 1337.34 110.356C1343.58 100.347 1350.56 90.8793 1359.51 83.1286C1364.91 78.4476 1369.99 77.8831 1375.16 81.8349C1377.61 83.7167 1380 85.7043 1382.55 87.445C1384.55 88.8093 1386.67 90.056 1388.88 91.0322C1392.23 92.4906 1394.15 94.9722 1394.11 99.171ZM1353.01 111.756C1357.7 114.237 1361.8 116.413 1366.01 118.636C1369.28 112.191 1372.46 105.969 1375.71 99.5709C1373.04 97.4656 1370.48 95.4427 1367.45 93.0551C1362.59 99.3357 1357.94 105.369 1353.01 111.756Z" fill="white"/>
<path d="M547.839 916.134C547.146 920.403 545.302 923.461 542.165 925.625C540.167 927.001 537.829 927.872 535.667 929.024C528.242 932.976 520.829 936.94 513.427 940.927C511.747 941.832 510.196 943.055 508.445 943.785C505.25 945.102 502.124 944.726 499.457 942.409C496.779 940.08 496.144 937.116 496.92 933.682C500.127 919.556 505.943 906.36 511.383 893.035C512.651 889.918 514.566 887.225 517.903 885.907C522.168 884.225 526.574 885.602 530.016 889.953C534.786 895.987 539.568 902.009 544.056 908.242C545.736 910.571 546.606 913.488 547.839 916.134Z" fill="white"/>
<path d="M701.679 703.078C702.878 704.925 703.865 706.301 704.699 707.771C707.507 712.746 706.743 718.356 702.831 721.826C698.918 725.295 693.173 725.542 688.673 722.026C681.906 716.733 677.888 709.629 676.537 701.208C675.479 694.61 680.003 686.459 686.417 684.025C698.766 679.32 711.278 675.039 723.791 670.782C725.812 670.088 728.255 670.088 730.405 670.417C734.529 671.064 737.408 673.581 738.5 677.686C739.617 681.896 738.442 685.636 735.07 688.329C733.19 689.823 730.875 690.846 728.631 691.799C719.808 695.563 710.937 699.22 701.679 703.078Z" fill="white"/>
<path d="M1511.76 519.555C1511.76 524.295 1511.89 528.552 1511.67 532.786C1511.61 533.763 1510.48 534.915 1509.55 535.586C1502.62 540.596 1497.77 546.971 1496.18 555.545C1494.1 566.765 1498.62 575.198 1509.18 579.326C1511.25 580.137 1511.89 581.102 1511.82 583.242C1511.66 588.135 1511.78 593.028 1511.78 598.614C1508.71 598.356 1505.85 598.426 1503.14 597.826C1487.45 594.416 1475.94 580.079 1475.06 563.06C1474.03 543.289 1487.75 524.46 1506.24 520.343C1507.87 519.99 1509.58 519.873 1511.76 519.555Z" fill="white"/>
<path d="M758.156 106.31C757.862 109.933 757.803 113.579 757.228 117.154C755.959 125.034 749.685 129.41 741.884 127.787C735.516 126.469 729.195 124.882 722.898 123.223C717.74 121.859 713.769 118.942 712.5 113.438C711.231 107.934 713.569 103.641 717.575 100.089C719.408 98.4656 721.499 97.1013 723.215 95.3606C725.87 92.6673 728.654 89.9975 730.769 86.9043C735.422 80.1063 744.104 78.4362 750.613 83.4818C755.136 86.9866 757.145 91.8675 757.721 97.3483C758.027 100.3 757.78 103.323 757.78 106.31C757.909 106.299 758.027 106.31 758.156 106.31Z" fill="white"/>
<path d="M407.546 839.25C407.416 844.919 404.362 851.988 397.853 857.304C389.417 864.208 377.692 863.726 370.337 855.693C363.053 847.742 360.726 837.945 364.075 827.76C367.588 817.057 378.925 811 389.253 813.058C400.167 815.246 407.499 824.666 407.546 839.25ZM392.672 839.003C391.978 836.969 391.638 835.146 390.792 833.605C388.43 829.3 384.4 829.241 381.816 833.417C380.864 834.946 380.183 836.651 379.478 838.321C378.326 841.062 379.854 844.908 382.662 846.519C385.305 848.036 388.442 847.46 390.263 844.719C391.391 843.002 391.908 840.885 392.672 839.003Z" fill="white"/>
<path d="M1411.11 906.478C1425.35 906.442 1435.87 917.851 1435.13 931.847C1434.46 944.49 1423.18 953.735 1410.16 952.312C1400.58 951.265 1392.95 943.773 1391.72 934.211C1391.61 933.258 1391.56 932.282 1391.33 931.353C1388.08 918.898 1395.85 907.913 1408.83 906.607C1409.79 906.513 1410.76 906.501 1411.11 906.478ZM1417.97 931.4C1417.89 928.648 1415.68 926.66 1412.86 926.813C1410.38 926.942 1405.33 931.071 1405.28 933.011C1405.22 935.211 1409.11 937.975 1412.05 937.833C1415.28 937.669 1418.08 934.646 1417.97 931.4Z" fill="white"/>
<path d="M400.449 57.8656C400.285 61.7938 398.746 66.2749 396.102 70.3913C390.439 79.2123 377.774 83.6698 368.915 72.179C364.439 66.3689 362.23 60.5119 365.203 53.5492C368.422 45.9984 373.956 40.8587 382.297 39.7649C392.472 38.4242 400.485 46.1631 400.449 57.8656Z" fill="white"/>
<path d="M951.39 899.692C955.69 898.292 958.991 897.081 962.375 896.152C966.933 894.905 970.658 896.528 972.009 900.103C973.348 903.691 971.68 907.466 967.45 909.512C960.73 912.758 953.927 915.852 947.09 918.851C942.825 920.721 938.513 920.921 934.765 917.628C931.017 914.335 930.371 909.924 931.992 905.584C935.446 896.304 939.335 887.178 943.095 878.016C943.447 877.157 944.117 876.381 944.752 875.675C947.278 872.876 950.955 872.1 954.045 873.676C957.147 875.24 958.85 878.663 957.852 882.344C956.959 885.625 955.525 888.754 954.327 891.941C953.446 894.293 952.553 896.634 951.39 899.692Z" fill="white"/>
<path d="M215.628 872.417C216.074 880.697 216.438 888.989 217.014 897.269C217.261 900.915 218.964 903.89 221.761 906.396C223.546 908.007 225.062 910.053 226.272 912.147C227.964 915.064 227.799 918.145 225.626 920.838C223.464 923.532 220.433 924.473 217.272 923.379C209.683 920.756 203.033 916.769 200.507 908.454C196.959 896.751 196.829 884.908 199.567 873.029C199.919 871.488 200.577 869.983 201.282 868.559C203.397 864.267 207.039 862.244 210.752 863.173C214.617 864.137 216.626 867.36 216.462 872.37C216.192 872.382 215.91 872.405 215.628 872.417Z" fill="white"/>
<path d="M1424.76 122.165C1430.86 121.024 1436.36 119.918 1441.88 119.001C1446.92 118.166 1452 117.448 1457.07 116.896C1459.27 116.66 1461.56 116.813 1463.76 117.119C1466 117.425 1467.9 118.624 1468.07 121.141C1468.23 123.611 1466.72 125.187 1464.44 125.764C1461.87 126.422 1459.19 126.657 1456.6 127.281C1443.55 130.397 1430.48 133.491 1417.48 136.784C1413.5 137.795 1409.87 138.042 1406.85 134.773C1404.2 131.915 1403.97 127.739 1406.29 123.4C1409.92 116.637 1413.66 109.921 1417.44 103.241C1419.77 99.1243 1423.25 97.7011 1426.71 99.2066C1430.24 100.736 1431.54 104.487 1430.04 109.051C1429.33 111.18 1428.49 113.25 1427.64 115.331C1426.83 117.401 1425.93 119.436 1424.76 122.165Z" fill="white"/>
<path d="M1435.2 176.243C1435.01 177.854 1434.98 179.266 1434.66 180.595C1432.96 187.616 1426.55 189.592 1421.34 184.629C1419.04 182.43 1416.88 180.042 1414.88 177.549C1411.22 172.973 1406.59 170.739 1400.72 170.821C1398.39 170.856 1396.01 170.739 1393.72 170.303C1389.88 169.574 1387.05 167.469 1386.23 163.4C1385.49 159.718 1387.1 155.919 1390.82 153.979C1409 144.558 1430.01 154.72 1434.38 171.103C1434.87 172.832 1434.96 174.667 1435.2 176.243Z" fill="white"/>
<path d="M486.663 769.459C485.946 771.893 485.464 774.434 484.489 776.763C479.731 788.148 473.645 798.803 466.032 808.506C464.375 810.623 462.119 812.54 459.746 813.775C454.659 816.398 449.442 813.658 448.902 807.977C448.62 805.037 448.961 801.52 450.359 799.027C456.962 787.207 463.917 775.575 471.013 764.049C473.163 760.567 477.111 759.673 480.624 760.908C484.125 762.132 486.252 765.295 486.663 769.459Z" fill="white"/>
<path d="M1511.76 82.1174C1511.76 87.3865 1511.87 92.385 1511.66 97.3718C1511.62 98.101 1510.17 99.2771 1509.27 99.383C1498.17 100.759 1487.06 101.994 1475.93 103.229C1468.94 104.005 1461.95 104.734 1454.95 105.452C1453.78 105.569 1452.6 105.664 1451.44 105.546C1447.77 105.17 1445.22 102.9 1444.76 99.7123C1444.3 96.5368 1446 93.4788 1449.56 92.2909C1453.29 91.0443 1457.15 90.0916 1461.03 89.48C1477.35 86.9278 1493.69 84.552 1510.02 82.1174C1510.44 82.0586 1510.86 82.1174 1511.76 82.1174Z" fill="white"/>
<path d="M1405.58 199.53C1405.59 208.54 1396.8 216.796 1387.18 216.808C1378.35 216.808 1371.01 209.739 1370.98 201.201C1370.94 191.051 1379.31 182.206 1388.85 182.277C1397.81 182.324 1405.56 190.333 1405.58 199.53Z" fill="white"/>
<path d="M117.36 954.323C117.066 955.064 116.808 956.816 115.844 957.945C113.201 961.003 110.463 964.026 107.397 966.625C101.781 971.377 95.9296 975.846 90.1374 980.386C88.3751 981.762 86.6245 983.232 84.6389 984.208C77.9773 987.478 71.2804 982.762 71.8914 975.352C72.1851 971.718 73.8769 968.777 76.7907 966.707C86.0018 960.156 95.2482 953.652 104.565 947.242C107.385 945.302 110.569 945.008 113.647 946.819C116.126 948.289 117.336 950.583 117.36 954.323Z" fill="white"/>
<path d="M57.5927 796.521C47.1832 796.416 40.0399 790.382 40.1808 781.785C40.3336 772.611 48.2288 764.825 57.2872 764.954C65.8287 765.072 74.1116 772.74 73.9589 780.397C73.7944 788.771 65.8404 796.604 57.5927 796.521Z" fill="white"/>
<path d="M1408.42 445.729C1409.84 443.001 1410.81 439.849 1412.79 437.626C1415.68 434.392 1420.9 434.768 1423.95 438.014C1425.22 439.367 1426.33 441.107 1426.91 442.86C1429.09 449.434 1433.08 454.715 1437.98 459.431C1439.2 460.619 1440.48 461.748 1441.66 462.983C1445.12 466.665 1444.36 472.157 1439.71 474.086C1437.32 475.074 1434.23 475.309 1431.69 474.768C1419.56 472.216 1409.21 458.773 1409.28 446.153C1408.97 446.023 1408.69 445.871 1408.42 445.729Z" fill="white"/>
<path d="M1474.03 239.401C1477.32 241.518 1480.25 243.082 1482.79 245.129C1485.06 246.964 1487.29 249.093 1488.81 251.539C1490.6 254.444 1489.43 258.172 1486.94 259.784C1484.49 261.371 1481.51 260.583 1478.88 258.16C1477.12 256.549 1475.05 255.197 1472.93 254.079C1469.09 252.033 1464.91 250.551 1461.22 248.269C1454.75 244.259 1454.66 237.625 1460.78 233.132C1467.31 228.334 1473.86 223.594 1480.42 218.854C1483.32 216.761 1486.27 216.843 1488.22 218.984C1490.2 221.159 1489.91 224.347 1487.23 226.946C1483.05 231.027 1478.74 234.979 1474.03 239.401Z" fill="white"/>
<path d="M890.895 902.02C890.942 893.223 895.148 887.742 901.316 886.484C907.414 885.237 913.523 888.754 916.155 895.011C919.292 902.491 915.673 914.911 909.012 919.557C903.031 923.72 895.348 921.203 893.104 913.911C891.729 909.477 891.365 904.725 890.895 902.02Z" fill="white"/>
<path d="M1261.3 77.1189C1260.56 77.1189 1259.81 77.166 1259.07 77.1072C1254.78 76.8014 1251.7 74.2257 1251.15 70.4973C1250.6 66.7925 1252.72 63.2053 1256.8 61.8998C1260.03 60.8649 1263.43 60.3356 1266.78 59.7358C1272.86 58.642 1278.96 57.6305 1285.06 56.6544C1286.53 56.4191 1288.03 56.2897 1289.51 56.3721C1293.35 56.6073 1296.34 58.9478 1297.38 62.3821C1298.4 65.734 1297.29 69.6035 1294.1 71.697C1292.12 73.0025 1289.71 74.0728 1287.38 74.3786C1278.72 75.5194 1270.01 76.3074 1261.31 77.2248C1261.3 77.1895 1261.3 77.1542 1261.3 77.1189Z" fill="white"/>
<path d="M307.727 959.627C300.96 959.439 295.097 957.263 291.678 950.994C288.682 945.514 289.011 939.868 292.289 934.552C293.158 933.141 294.333 931.435 295.743 930.93C297.764 930.2 300.513 929.671 302.252 930.518C303.838 931.282 304.872 933.882 305.413 935.869C305.824 937.387 305.048 939.21 304.86 940.903C304.367 945.22 306.54 947.654 310.876 947.584C314.271 947.525 317.15 946.419 318.936 943.291C319.147 942.926 319.382 942.561 319.652 942.232C322.237 938.974 326.796 938.304 329.557 940.774C332.4 943.314 332.447 948.536 329.098 950.994C322.766 955.605 315.928 959.31 307.727 959.627Z" fill="white"/>
<path d="M505.038 209.904C499.727 209.175 495.921 206.376 495.145 202.083C494.358 197.66 496.731 193.121 501.654 192.121C510.912 190.239 520.312 188.969 529.699 187.851C533 187.463 535.949 189.145 537.43 192.474C538.593 195.085 537.994 197.531 536.243 199.636C535.515 200.518 534.563 201.495 533.529 201.789C524.059 204.576 514.543 207.222 505.038 209.904Z" fill="white"/>
<path d="M183.189 162.447C182.742 169.527 181.873 176.396 179.018 182.841C176.692 188.063 173.343 192.391 167.481 194.003C164.931 194.697 164.167 193.956 164.99 191.545C168.808 180.43 169.29 168.998 168.268 157.413C167.986 154.226 167.68 151.027 167.704 147.84C167.727 143.9 170.007 141.206 173.296 140.724C176.574 140.242 179.676 142.194 180.522 146.075C181.697 151.474 182.319 156.978 183.189 162.447Z" fill="white"/>
<path d="M1511.6 984.432C1502.42 984.185 1494.36 986.772 1487.01 991.771C1484.18 993.7 1480.09 992.5 1478.84 989.007C1478.08 986.854 1477.77 984.008 1478.55 981.973C1479.69 978.998 1481.58 976.034 1483.89 973.858C1491.63 966.602 1501.22 965.025 1511.59 965.472C1511.6 971.894 1511.6 978.022 1511.6 984.432Z" fill="white"/>
<path d="M490.869 229.134C490.317 230.827 489.753 233.685 488.507 236.202C485.229 242.836 478.756 245.67 472.987 243.306C466.196 240.519 462.519 233.544 464.798 226.64C465.762 223.735 467.606 220.83 469.78 218.678C473.575 214.926 478.38 213.421 483.573 215.702C488.801 217.996 490.328 222.712 490.869 229.134Z" fill="white"/>
<path d="M1418.65 749.512C1420.15 749.512 1421.64 749.476 1423.12 749.512C1429.73 749.676 1433.46 754.699 1431.41 761.003C1430.37 764.225 1429 767.389 1427.43 770.4C1424.83 775.363 1418.67 776.657 1414.76 772.705C1411.52 769.412 1408.55 765.625 1406.42 761.544C1403.07 755.134 1406.92 749.547 1414.19 749.418C1415.68 749.394 1417.17 749.418 1418.67 749.418C1418.65 749.453 1418.65 749.476 1418.65 749.512Z" fill="white"/>
<path d="M884.092 83.1407C888.803 82.9996 891.541 84.7285 892.304 89.3859C893.444 96.3133 894.243 103.335 894.725 110.333C895.042 114.896 891.999 118.378 888.145 118.895C884.233 119.424 880.603 117.001 879.686 112.285C878.617 106.863 878.3 101.288 877.689 95.7841C877.513 94.1963 877.536 92.585 877.372 90.9972C876.749 85.3283 878.453 83.3054 884.092 83.1407Z" fill="white"/>
<path d="M447.539 756.486C442.217 756.474 438.997 753.969 438.504 750.229C437.999 746.383 440.325 743.443 444.731 742.302C451.428 740.573 458.078 738.703 464.81 737.127C467.136 736.586 469.721 736.315 472.035 736.751C476.523 737.586 477.957 741.855 475.266 745.56C474.655 746.407 473.892 747.242 473.01 747.783C464.904 752.84 455.845 755.028 447.539 756.486Z" fill="white"/>
<path d="M1458 844.413C1457.94 836.439 1462.59 832.593 1468.2 834.546C1472.66 836.11 1477.02 838.239 1481.02 840.767C1484.36 842.884 1484.64 846.766 1481.93 849.635C1478.81 852.976 1475.47 856.151 1471.89 858.997C1467.98 862.114 1462.5 860.503 1460.64 855.493C1459.13 851.341 1458.56 846.836 1458 844.413Z" fill="white"/>
<path d="M1477.48 210.645C1473.77 210.621 1471.5 209.645 1470.21 207.093C1468.86 204.423 1469.04 201.424 1471.31 199.754C1476.85 195.673 1482.54 191.744 1488.57 188.487C1492.06 186.593 1496.01 188.334 1497.84 191.227C1499.72 194.191 1499.49 198.072 1496.63 200.93C1491.11 206.493 1483.81 208.622 1477.48 210.645Z" fill="white"/>
<path d="M269.649 242.377C269.626 235.967 274.854 230.227 280.799 230.157C286.591 230.086 291.384 235.273 291.361 241.589C291.337 247.693 285.886 253.338 280.047 253.303C274.595 253.268 269.684 248.105 269.649 242.377Z" fill="white"/>
<path d="M1485.22 145.887C1485.09 151.227 1485.73 152.156 1490.09 153.708C1494.25 155.19 1495.91 156.966 1495.46 159.424C1495 161.918 1492.21 163.741 1488.48 163.976C1477.74 164.681 1468.66 153.579 1471.45 143.17C1472.44 139.489 1475.51 137.148 1478.94 137.478C1482.32 137.795 1484.69 140.347 1485.13 144.146C1485.22 144.993 1485.22 145.852 1485.22 145.887Z" fill="white"/>
<path d="M1459.72 310.004C1460.24 306.946 1460.53 304.171 1461.23 301.524C1462.32 297.42 1464.97 295.35 1468.4 295.479C1471.89 295.608 1474.37 298.149 1475.12 302.406C1475.28 303.347 1475.29 304.312 1475.39 305.264C1475.8 309.169 1476.13 313.097 1476.67 316.99C1477.41 322.33 1473.66 325.635 1468.5 324.024C1465.01 322.93 1462.63 320.519 1461.41 317.179C1460.55 314.803 1460.23 312.251 1459.72 310.004Z" fill="white"/>
<path d="M1320.7 174.561C1320.76 177.431 1318.92 180.089 1315.67 180.771C1308.8 182.218 1301.88 183.512 1294.93 184.488C1293.49 184.688 1291.2 183.57 1290.41 182.335C1289.63 181.112 1289.79 178.842 1290.32 177.302C1290.8 175.926 1292.18 174.679 1293.46 173.809C1299.26 169.88 1305.81 168.022 1312.75 167.869C1317.32 167.775 1320.62 170.797 1320.7 174.561Z" fill="white"/>
<path d="M1483.27 695.621C1483.27 695.304 1483.26 694.986 1483.27 694.669C1483.52 689.941 1485.73 687.024 1489.21 686.836C1492.69 686.636 1495.03 689.329 1495.78 694.069C1496.24 696.986 1496.45 700.15 1497.77 702.69C1499.02 705.089 1501.59 706.771 1503.5 708.829C1504.34 709.735 1505.71 710.982 1505.52 711.782C1505.25 712.969 1504.01 714.463 1502.86 714.828C1499.23 715.957 1495.66 715.239 1492.55 713.016C1486.63 708.747 1483.81 702.784 1483.27 695.621Z" fill="white"/>
<path d="M567.636 800.509C567.636 802.955 567.519 805.413 567.672 807.848C567.801 809.976 566.79 811.094 564.91 810.541C562.467 809.835 559.612 809.106 557.955 807.389C554.301 803.614 552.621 798.721 552.809 793.369C552.985 788.512 556.24 785.066 560.387 785.113C564.687 785.16 567.636 788.465 567.695 793.475C567.718 795.816 567.495 798.156 567.378 800.497C567.46 800.509 567.554 800.509 567.636 800.509Z" fill="white"/>
<path d="M944.188 100.489C938.737 100.559 933.496 95.6077 933.426 90.3269C933.355 85.3754 937.421 81.4942 942.743 81.4236C948.347 81.3531 953.282 86.1517 953.305 91.6795C953.329 96.4428 949.205 100.43 944.188 100.489Z" fill="white"/>
<path d="M124.891 283.706C124.973 289.493 120.65 293.879 114.881 293.868C110.581 293.856 107.608 291.092 107.432 286.787C107.373 285.306 107.467 283.788 107.726 282.33C108.736 276.802 112.813 273.285 117.548 273.721C122.107 274.144 124.809 277.802 124.891 283.706Z" fill="white"/>
<path d="M1330.23 65.2047C1330.3 70.4032 1326 74.7431 1320.71 74.8019C1315.64 74.8725 1311.93 71.8616 1311.82 67.5923C1311.66 61.3588 1315.8 56.419 1321.21 56.372C1326.17 56.3249 1330.16 60.2297 1330.23 65.2047Z" fill="white"/>
<path d="M616.7 277.284C617.122 274.544 617.369 271.333 618.168 268.275C619.143 264.523 623.502 263.477 625.875 266.429C628.989 270.286 631.221 274.603 631.115 279.801C631.021 284.412 628.507 287.658 624.689 287.952C620.917 288.246 618.098 285.717 617.216 281.201C616.981 280.048 616.899 278.884 616.7 277.284Z" fill="white"/>
<path d="M1488.78 733.575C1483.18 733.246 1479.34 731.999 1476.94 728.024C1474.97 724.754 1475.58 720.814 1478.26 718.768C1480.9 716.745 1483.46 717.545 1486.82 720.05C1489.28 721.873 1492.53 722.578 1495.35 723.943C1496.83 724.66 1498.17 725.695 1499.57 726.589C1498.44 728.247 1497.68 730.588 1496.11 731.411C1493.56 732.752 1490.5 733.117 1488.78 733.575Z" fill="white"/>
<path d="M41.2857 976.493C41.2504 981.397 37.4203 985.22 32.568 985.196C27.7627 985.184 23.8856 981.28 23.8503 976.434C23.8151 971.435 27.8567 967.19 32.5562 967.307C37.4203 967.448 41.3327 971.553 41.2857 976.493Z" fill="white"/>
<path d="M781.055 584.136C781.067 588.805 777.237 592.428 772.29 592.416C766.98 592.404 764.16 588.453 764.09 580.914C764.054 577.256 766.545 574.962 770.504 574.998C776.896 575.068 781.043 578.667 781.055 584.136Z" fill="white"/>
<path d="M1494.75 636.121C1495.01 640.214 1491.47 642.684 1488.11 640.414C1486 638.979 1483.75 636.497 1483.28 634.133C1482.59 630.64 1483.11 626.783 1483.69 623.184C1484.09 620.737 1486.04 619.126 1488.81 619.314C1491.72 619.514 1493.16 621.431 1493.52 624.101C1494.06 628.076 1494.35 632.099 1494.75 636.121Z" fill="white"/>
<path d="M1150.14 892.305C1154.44 892.27 1157.76 895.81 1157.75 900.456C1157.73 905.055 1154.46 908.618 1150.16 908.689C1145.83 908.759 1142.65 905.49 1142.61 900.938C1142.57 896.093 1145.83 892.341 1150.14 892.305Z" fill="white"/>
<path d="M394.904 888.024C391.509 888.001 389.159 887.213 388.066 884.425C386.997 881.697 387.89 879.309 389.981 877.51C391.826 875.922 393.823 874.428 395.985 873.334C398.476 872.076 401.037 872.511 402.987 874.664C404.949 876.816 405.102 879.38 403.68 881.791C401.589 885.343 398.652 887.848 394.904 888.024Z" fill="white"/>
<path d="M84.6273 864.643C80.1627 864.714 76.4266 861.044 76.4148 856.61C76.4031 852.717 79.3168 849.624 83.1352 849.483C87.7995 849.318 91.9233 852.988 91.9351 857.327C91.9351 861.362 88.7276 864.572 84.6273 864.643Z" fill="white"/>
<path d="M1216.93 239.731C1217.03 235.202 1219.55 232.192 1223.13 232.274C1227.03 232.368 1231.4 236.978 1231.45 241.06C1231.48 244.964 1228.66 248.105 1224.86 248.375C1220.65 248.681 1217.31 245.717 1216.94 241.33C1216.89 240.801 1216.93 240.26 1216.93 239.731Z" fill="white"/>
<path d="M1068.61 793.511C1067.89 794.357 1066.88 796.545 1065.22 797.286C1062.1 798.697 1058.64 799.627 1055.24 800.121C1052.19 800.556 1050.55 797.521 1052.19 794.604C1054.44 790.629 1057.88 787.995 1062.5 787.395C1065.96 786.96 1068.63 789.265 1068.61 793.511Z" fill="white"/>
<path d="M441.371 876.122C437.729 875.981 434.932 872.958 435.109 869.383C435.285 865.748 438.316 862.938 441.888 863.114C445.518 863.29 448.303 866.301 448.138 869.9C447.962 873.57 445.025 876.263 441.371 876.122Z" fill="white"/>
<path d="M1001.51 904.055C1004.88 904.067 1007.69 906.995 1007.71 910.5C1007.74 914.076 1004.96 916.898 1001.5 916.828C998.057 916.757 995.378 913.84 995.472 910.277C995.566 906.842 998.292 904.043 1001.51 904.055Z" fill="white"/>
<path d="M1496.31 400.884C1496.38 404.589 1493.76 407.623 1490.51 407.623C1487.61 407.623 1485.33 405.341 1485.21 402.342C1485.07 398.849 1488.11 395.379 1491.3 395.403C1494.2 395.426 1496.25 397.673 1496.31 400.884Z" fill="white"/>
<path d="M1454.64 494.374C1451.35 494.28 1448.5 491.234 1448.53 487.835C1448.57 484.859 1450.53 482.672 1453.09 482.766C1456.26 482.883 1460.1 486.682 1459.96 489.552C1459.81 492.316 1457.46 494.445 1454.64 494.374Z" fill="white"/>
<path d="M351.175 840.744C351.116 843.778 348.59 846.178 345.57 846.072C342.657 845.978 340.342 843.602 340.33 840.709C340.307 837.651 342.739 835.204 345.782 835.228C348.837 835.24 351.233 837.698 351.175 840.744Z" fill="white"/>
<path d="M536.455 283.141C537.618 279.413 538.511 275.579 540.026 271.992C541.401 268.734 544.456 267.558 547.358 268.463C550.248 269.369 552.081 272.062 551.423 275.532C550.589 279.907 549.343 284.212 548.016 288.469C547.299 290.751 545.913 292.821 543.011 292.562C540.238 292.327 538.628 290.492 537.794 288.022C537.301 286.529 537.16 284.917 536.866 283.353C536.725 283.294 536.584 283.224 536.455 283.141Z" fill="white"/>
</g>
</svg>
