<svg width="474" height="200" viewBox="0 0 474 200" fill="none" xmlns="http://www.w3.org/2000/svg">
<path d="M0.0405273 101.318C21.8155 62.9325 55.6752 32.8266 96.3447 15.6912C137.014 -1.4443 182.209 -4.64703 224.889 6.58195C267.568 17.8109 305.335 42.841 332.306 77.7726C359.276 112.704 373.936 155.868 374 200H254C253.974 182.347 248.111 165.081 237.322 151.109C226.534 137.136 211.427 127.124 194.356 122.633C177.284 118.141 159.206 119.422 142.938 126.276C126.67 133.13 113.126 145.173 104.416 160.527L0.0405273 101.318Z" fill="white"/>
<path d="M474 100C460.868 100 447.864 102.587 435.732 107.612C423.599 112.637 412.575 120.003 403.289 129.289C394.004 138.575 386.638 149.599 381.612 161.732C376.587 173.864 374 186.868 374 200H434C434 194.747 435.035 189.546 437.045 184.693C439.055 179.84 442.001 175.43 445.716 171.716C449.43 168.001 453.84 165.055 458.693 163.045C463.546 161.035 468.747 160 474 160V100Z" fill="#53ADDF"/>
</svg>
