<svg width="550" height="553" viewBox="0 0 550 553" fill="none" xmlns="http://www.w3.org/2000/svg">
<path d="M49.6435 2.64355C49.6435 68.3046 62.5764 133.323 87.7038 193.986C112.832 254.649 149.661 309.768 196.091 356.198C242.52 402.627 297.64 439.457 358.302 464.583C418.965 489.711 483.983 502.644 549.644 502.644V202.644C523.38 202.644 497.372 197.471 473.107 187.42C448.842 177.369 426.794 162.637 408.223 144.065C389.651 125.494 374.919 103.446 364.868 79.1805C354.817 54.9155 349.644 28.9075 349.644 2.64354L49.6435 2.64355Z" fill="#F2F2F2"/>
<path d="M0.647445 0.574219C0.375806 72.8012 14.3329 144.373 41.7218 211.206C69.1107 278.038 109.396 338.822 160.275 390.086C211.155 441.35 271.634 482.091 338.258 509.981C404.883 537.872 476.349 552.367 548.575 552.639L548.658 530.647C479.32 530.386 410.712 516.471 346.751 489.695C282.79 462.919 224.73 423.808 175.885 374.594C127.039 325.38 88.3652 267.026 62.0715 202.866C35.7777 138.706 22.3787 69.9952 22.6395 0.657226L0.647445 0.574219Z" fill="#53ADDF"/>
</svg>
