<svg width="438" height="376" viewBox="0 0 438 376" fill="none" xmlns="http://www.w3.org/2000/svg">
<path d="M306.728 0.290283C378.948 0.290283 437.495 58.8366 437.495 131.057C437.494 203.277 378.948 261.823 306.728 261.823C290.999 261.823 275.919 259.045 261.951 253.954C257.263 321.914 200.652 375.589 131.501 375.589C59.2813 375.589 0.735045 317.044 0.734863 244.823C0.734863 172.603 59.2812 114.057 131.501 114.057C147.23 114.057 162.31 116.834 176.278 121.924C180.966 53.9647 237.578 0.290283 306.728 0.290283ZM131.501 166.364C88.1693 166.364 53.0415 201.491 53.0415 244.823C53.0417 288.155 88.1694 323.282 131.501 323.282C174.833 323.282 209.961 288.155 209.961 244.823C209.961 231.095 206.434 218.19 200.238 206.964C198.04 203.886 195.97 200.709 194.041 197.44C179.713 178.558 157.032 166.364 131.501 166.364ZM306.728 52.5969C263.396 52.5969 228.268 87.7247 228.268 131.057C228.268 144.784 231.795 157.688 237.99 168.912C240.189 171.992 242.257 175.171 244.188 178.441C258.516 197.322 281.198 209.517 306.728 209.517C350.06 209.517 385.188 174.389 385.188 131.057C385.188 87.7247 350.06 52.5969 306.728 52.5969Z" fill="#F2F2F2"/>
</svg>
