<svg width="443" height="200" viewBox="0 0 443 200" fill="none" xmlns="http://www.w3.org/2000/svg">
<path d="M300.615 199.843C300.615 160.1 284.827 121.985 256.725 93.8822C228.622 65.7797 190.507 49.9918 150.764 49.9918C111.021 49.9918 72.906 65.7796 44.8035 93.8821C16.7009 121.985 0.913098 160.1 0.913086 199.843L60.8535 199.843C60.8535 175.997 70.3262 153.128 87.1877 136.266C104.049 119.405 126.918 109.932 150.764 109.932C174.61 109.932 197.479 119.405 214.341 136.266C231.202 153.128 240.675 175.997 240.675 199.843L300.615 199.843Z" fill="#F2F2F2"/>
<path d="M443.001 0C416.736 -3.80921e-06 390.729 5.17315 366.464 15.2241C342.199 25.275 320.151 40.0069 301.579 58.5786C283.007 77.1504 268.276 99.1982 258.225 123.463C248.174 147.728 243 173.736 243 200H323C323 184.241 326.104 168.637 332.135 154.078C338.166 139.519 347.005 126.29 358.148 115.147C369.291 104.004 382.519 95.165 397.078 89.1344C411.638 83.1039 427.242 80 443.001 80V0Z" fill="#F2F2F2"/>
</svg>
