<svg width="436" height="650" viewBox="0 0 436 650" fill="none" xmlns="http://www.w3.org/2000/svg">
<path d="M36 450C36 560.457 125.543 650 236 650C346.457 650 436 560.457 436 450C436 339.543 346.457 250 236 250C125.543 250 36 339.543 36 450ZM356 450C356 516.274 302.274 570 236 570C169.726 570 116 516.274 116 450C116 383.726 169.726 330 236 330C302.274 330 356 383.726 356 450Z" fill="#F19015"/>
<path d="M1.11273e-05 400C53.0433 400 103.914 378.929 141.421 341.421C178.929 303.914 200 253.043 200 200C200 146.957 178.929 96.0859 141.421 58.5786C103.914 21.0714 53.0433 -6.32535e-07 0 0L9.53989e-07 80C31.826 80 62.3485 92.6428 84.8528 115.147C107.357 137.652 120 168.174 120 200C120 231.826 107.357 262.348 84.8528 284.853C62.3485 307.357 31.826 320 7.63034e-06 320L1.11273e-05 400Z" fill="#F19015"/>
</svg>
