<svg width="443" height="200" viewBox="0 0 443 200" fill="none" xmlns="http://www.w3.org/2000/svg">
<path d="M143.299 199.843C143.299 160.1 159.087 121.985 187.189 93.8822C215.292 65.7797 253.407 49.9918 293.15 49.9918C332.893 49.9918 371.008 65.7796 399.111 93.8821C427.213 121.985 443.001 160.1 443.001 199.843L383.061 199.843C383.061 175.997 373.588 153.128 356.726 136.266C339.865 119.405 316.996 109.932 293.15 109.932C269.304 109.932 246.435 119.405 229.574 136.266C212.712 153.128 203.239 175.997 203.239 199.843L143.299 199.843Z" fill="#F2F2F2"/>
<path d="M0.913544 0C27.1779 -3.80921e-06 53.1851 5.17315 77.4502 15.2241C101.715 25.275 123.763 40.0069 142.335 58.5786C160.907 77.1504 175.639 99.1982 185.689 123.463C195.74 147.728 200.914 173.736 200.914 200H120.914C120.914 184.241 117.81 168.637 111.779 154.078C105.749 139.519 96.9094 126.29 85.7664 115.147C74.6234 104.004 61.3946 95.165 46.8356 89.1344C32.2765 83.1039 16.6722 80 0.913544 80V0Z" fill="#F2F2F2"/>
</svg>
