<svg width="200" height="391" viewBox="0 0 200 391" fill="none" xmlns="http://www.w3.org/2000/svg">
<path d="M200 191C173.736 191 147.728 196.173 123.463 206.224C99.1982 216.275 77.1504 231.007 58.5786 249.579C40.0069 268.15 25.275 290.198 15.2241 314.463C5.17314 338.728 -4.59221e-06 364.736 0 391H80C80 375.241 83.1039 359.637 89.1344 345.078C95.165 330.519 104.004 317.29 115.147 306.147C126.29 295.004 139.519 286.165 154.078 280.134C168.637 274.104 184.241 271 200 271V191Z" fill="#1B9FE0"/>
<path d="M199.5 0C174.172 3.02035e-07 149.881 10.0616 131.971 27.9713C114.062 45.881 104 70.1718 104 95.5C104 120.828 114.062 145.119 131.971 163.029C149.881 180.938 174.172 191 199.5 191V152.8C184.303 152.8 169.729 146.763 158.983 136.017C148.237 125.271 142.2 110.697 142.2 95.5C142.2 80.3031 148.237 65.7286 158.983 54.9828C169.729 44.2369 184.303 38.2 199.5 38.2V0Z" fill="white"/>
</svg>
