<svg width="254" height="251" viewBox="0 0 254 251" fill="none" xmlns="http://www.w3.org/2000/svg">
<path d="M0.397461 250.603C0.397461 217.772 6.8639 185.263 19.4276 154.932C31.9913 124.6 50.4061 97.0405 73.6208 73.8258C96.8354 50.6112 124.395 32.1963 154.727 19.6326C185.058 7.06897 217.567 0.602537 250.397 0.602542L250.397 25.6025C220.85 25.6025 191.592 31.4223 164.294 42.7296C136.995 54.0369 112.192 70.6103 91.2984 91.5035C70.4053 112.397 53.8319 137.2 42.5246 164.499C31.2173 191.797 25.3975 221.055 25.3975 250.603L0.397461 250.603Z" fill="#1B9FE0"/>
<path d="M53.6026 250.603C53.6026 224.338 58.7757 198.331 68.8266 174.066C78.8776 149.801 93.6095 127.753 112.181 109.181C130.753 90.6094 152.801 75.8775 177.066 65.8266C201.331 55.7756 227.338 50.6025 253.603 50.6025L253.603 130.602C237.844 130.602 222.24 133.706 207.681 139.737C193.121 145.768 179.893 154.607 168.75 165.75C157.607 176.893 148.768 190.121 142.737 204.68C136.706 219.24 133.603 234.844 133.603 250.603L53.6026 250.603Z" fill="#F2F2F2"/>
</svg>
