<svg width="394" height="200" viewBox="0 0 394 200" fill="none" xmlns="http://www.w3.org/2000/svg">
<path d="M0 199.5C0 167.276 12.8009 136.372 35.5865 113.587C58.3722 90.8009 89.2762 78 121.5 78C153.724 78 184.628 90.8009 207.413 113.587C230.199 136.372 243 167.276 243 199.5H194.4C194.4 180.166 186.719 161.623 173.048 147.952C159.377 134.281 140.834 126.6 121.5 126.6C102.166 126.6 83.6233 134.281 69.9519 147.952C56.2805 161.623 48.6 180.166 48.6 199.5H0Z" fill="white"/>
<path d="M194 200C194 173.736 199.173 147.728 209.224 123.463C219.275 99.1982 234.007 77.1504 252.579 58.5786C271.15 40.0069 293.198 25.275 317.463 15.2241C341.728 5.17315 367.736 -1.14805e-06 394 0V80C378.241 80 362.637 83.1039 348.078 89.1344C333.519 95.165 320.29 104.004 309.147 115.147C298.004 126.29 289.165 139.519 283.134 154.078C277.104 168.637 274 184.241 274 200H194Z" fill="#1B9FE0"/>
</svg>
