<svg width="668" height="574" viewBox="0 0 668 574" fill="none" xmlns="http://www.w3.org/2000/svg">
<path d="M468 0C578.457 0 668 89.5431 668 200C668 310.457 578.457 400 468 400C443.945 400 420.882 395.752 399.52 387.968C392.349 491.908 305.761 574 200 574C89.5431 574 0 484.457 0 374C0 263.543 89.5431 174 200 174C224.055 174 247.117 178.247 268.479 186.031C275.65 82.0915 362.239 0 468 0ZM200 254C133.726 254 80 307.726 80 374C80 440.274 133.726 494 200 494C266.274 494 320 440.274 320 374C320 353 314.604 333.262 305.126 316.092C301.765 311.385 298.6 306.527 295.649 301.528C273.736 272.651 239.047 254 200 254ZM468 80C401.726 80 348 133.726 348 200C348 220.999 353.395 240.738 362.873 257.907C366.234 262.614 369.399 267.472 372.35 272.471C394.263 301.349 428.953 320 468 320C534.274 320 588 266.274 588 200C588 133.726 534.274 80 468 80Z" fill="#F19015"/>
</svg>
